<?xml version="1.0" encoding="UTF-8"?>
<svg width="44px" height="44px" viewBox="0 0 44 44" version="1.1" xmlns="http://www.w3.org/2000/svg" xmlns:xlink="http://www.w3.org/1999/xlink">
    <!-- Generator: Sketch 52.3 (67297) - http://www.bohemiancoding.com/sketch -->
    <title>woguanxiade copy</title>
    <desc>Created with Sketch.</desc>
    <g id="第二版" stroke="none" stroke-width="1" fill="none" fill-rule="evenodd">
        <g id="woguanxiade-copy" fill="#FFFFFF">
            <path d="M29.9332231,16.5207682 C32.3957793,20.1151042 32.1455195,24.9125651 29.3225892,28.2311849 C26.4996589,31.5447917 21.8047855,32.5524089 17.875707,30.6825521 C13.9416232,28.8076823 11.7543528,24.5315755 12.5351633,20.2454427 C13.3159738,15.9593099 16.8696627,12.7259115 21.2091672,12.369987 L20.9539022,9.16666667 C14.3520493,9.69804688 9.16666667,15.2324219 9.16666667,21.9799479 C9.16666667,29.0783854 14.9176364,34.8333333 21.9999881,34.8333333 C29.0823399,34.8333333 34.8333096,29.0733724 34.8333096,21.9799479 C34.8383148,19.3832031 34.0524991,16.8466146 32.5809716,14.7060547 L29.9332231,16.5207682 Z" id="Path"></path>
            <path d="M22.6294519,0.0545063859 L22.6294519,20.6529651 C21.9066958,20.6529651 21.2803072,21.1682982 21.1213009,21.8917466 C20.9622946,22.615195 21.3140359,23.3584639 21.9645163,23.6805471 C22.6198152,23.9976752 23.4003918,23.8093804 23.8436822,23.2246755 C24.2917909,22.6399707 24.2821542,21.8124646 23.8244087,21.23767 L39.3877564,8.27010528 L39.4070299,8.25028478 C39.4118483,8.25028478 39.4118483,8.24532965 39.4166667,8.24532965 C35.4656001,3.21587677 29.4233592,0 22.6439071,0 L22.6294519,0 L22.6294519,0.0545063859 Z" id="Path"></path>
            <path d="M40.1589518,9.5301353 L40.1393045,9.5498155 C40.1343927,9.5498155 40.1343927,9.55473555 40.1294809,9.55473555 L37.5655165,11.3161132 C40.7483689,15.99508 41.6668772,21.8548585 40.0705392,27.2865929 C38.479113,32.7183272 34.5349303,37.1463715 29.3333244,39.3554736 C23.5128305,41.8204182 16.8475055,41.200492 11.582046,37.702337 C6.31658659,34.199262 3.15338149,28.2902829 3.1582933,21.9630996 C3.14846968,16.9544895 5.13775239,12.1525215 8.67916681,8.61500615 C10.3983,6.89298893 12.431789,5.51537515 14.6666622,4.56580566 C16.5184142,3.77859779 18.4880497,3.29643296 20.4920679,3.14391144 L20.2464774,0.0541205412 L20.2415656,0 C8.91493365,0.890528905 0,10.3813038 0,21.9630996 C0,34.1303813 9.84817739,44 21.9999933,44 C34.1518092,44 43.9999866,34.1353014 43.9999866,21.9630996 C44.0048984,17.5252153 42.6639745,13.1906519 40.1589518,9.5301353 Z" id="Path"></path>
        </g>
    </g>
</svg>