<?xml version="1.0" encoding="UTF-8"?>
<svg width="17px" height="17px" viewBox="0 0 17 17" version="1.1" xmlns="http://www.w3.org/2000/svg" xmlns:xlink="http://www.w3.org/1999/xlink">
    <!-- Generator: Sketch 52.3 (67297) - http://www.bohemiancoding.com/sketch -->
    <title>Group 90 Copy 3</title>
    <desc>Created with Sketch.</desc>
    <g id="第二版" stroke="none" stroke-width="1" fill="none" fill-rule="evenodd">
        <g id="Group-90-Copy-3">
            <g id="编辑器-·-附件">
                <g id="Group">
                    <rect id="Rectangle" fill="#000000" opacity="0" x="0" y="0" width="15.75" height="15.75"></rect>
                    <path d="M5.81196145,12.1821873 C6.01217001,12.3823959 6.31248283,12.3490278 6.51269139,12.1821873 L9.84950055,8.84537817 C10.0830772,8.61180153 10.4834943,8.57843344 10.7838071,8.84537817 C11.08412,9.1123229 11.0507519,9.57947619 10.7838071,9.84642092 L6.67953184,13.88396 C5.77859335,14.7848985 4.27702923,14.7848985 3.37609075,13.88396 L3.34272266,13.8505919 C2.44178417,12.9496535 2.44178417,11.4480893 3.34272266,10.5471509 L10.5835986,3.30627495 C11.4845371,2.40533647 12.9861012,2.40533647 13.8870397,3.30627495 L13.9204078,3.33964303 C14.8213462,4.24058151 14.8213462,5.74214563 13.9204078,6.64308413 L13.8870397,6.6764522 C13.7201992,6.84329267 13.6868311,7.0768693 13.8203035,7.27707786 C14.020512,7.64412686 14.1873525,8.04454398 14.2874568,8.44496107 C14.354193,8.7119058 14.6545058,8.778642 14.8547143,8.61180153 C15.1216591,8.3448568 15.3552357,8.07791207 15.3552357,8.07791207 C17.0570084,6.37613939 17.0570084,3.60658777 15.3552357,1.90481508 L15.2884995,1.90481508 C13.5867268,0.203042405 10.8171752,0.203042405 9.11540255,1.90481508 L1.87452663,9.11232292 C0.172753939,10.8140956 0.172753939,13.5836472 1.87452663,15.2854199 L1.94126281,15.3521561 C3.64303548,17.0539287 6.37921901,17.0539287 8.0809917,15.3521561 L12.2186351,11.2478808 C13.286414,10.1801018 13.2530459,8.44496107 12.1518989,7.37718215 C11.08412,6.3427713 9.34897918,6.40950749 8.31456834,7.47728642 L5.04449535,10.7473594 C4.84428679,10.947568 4.84428679,11.2812489 5.04449535,11.4814574 L5.81196145,12.1821873 Z" id="Path" fill="#0A2A5E"></path>
                </g>
            </g>
        </g>
    </g>
</svg>