<?xml version="1.0" encoding="UTF-8"?>
<svg width="22px" height="22px" viewBox="0 0 22 22" version="1.1" xmlns="http://www.w3.org/2000/svg" xmlns:xlink="http://www.w3.org/1999/xlink">
    <!-- Generator: Sketch 52.3 (67297) - http://www.bohemiancoding.com/sketch -->
    <title>Group 21 Copy</title>
    <desc>Created with Sketch.</desc>
    <g id="第二版" stroke="none" stroke-width="1" fill="none" fill-rule="evenodd">
        <g id="Group-21-Copy" fill-rule="nonzero">
            <circle id="Combined-Shape" stroke="#FFFFFF" opacity="0.6" cx="11" cy="11" r="10.5"></circle>
            <path d="M14.1925974,16.7658185 C12.8393999,16.6982745 11.0119731,15.4553412 9.30368283,13.4408934 L8.67266993,12.697124 C6.96437965,10.6825288 6.06938286,8.71495751 6.27868383,7.43376116 C6.426402,6.52988671 7.80343442,5.76709635 8.59027412,5.76709635 C8.97782654,5.76709635 9.1182293,5.95530267 9.1673218,6.06769564 C9.61274267,6.84018077 10.163878,8.18357601 10.1664214,8.66540237 L10.1665725,8.69968425 L10.1539814,8.73170525 C10.0557461,8.98497342 9.83593156,9.10631164 9.64201685,9.21333501 C9.38654451,9.3542225 9.24135715,9.44673443 9.22361637,9.71306413 C9.21835331,9.79389074 9.28979491,10.1615793 10.4168195,11.5173725 L10.8986663,12.0851739 C12.0288135,13.3867551 12.3843846,13.5268562 12.4676366,13.5384432 C12.7401698,13.5754283 12.8684978,13.4588208 13.0645026,13.2491484 C13.2137191,13.0894857 13.3830057,12.9082955 13.6623129,12.8683737 L13.6976812,12.8634587 L13.7324576,12.8706591 C14.2246165,12.9719443 15.4844011,13.7642613 16.1995725,14.3524844 C16.3028317,14.4193648 16.4830348,14.6179171 16.3403404,15.0565409 C16.1164968,15.7454102 15.1406529,16.7670964 14.2509821,16.7670964 L14.1925974,16.7658185 Z" id="Path" fill="#FFFFFF"></path>
        </g>
    </g>
</svg>