<?xml version="1.0" encoding="UTF-8"?>
<svg width="22px" height="22px" viewBox="0 0 22 22" version="1.1" xmlns="http://www.w3.org/2000/svg" xmlns:xlink="http://www.w3.org/1999/xlink">
    <!-- Generator: Sketch 52.3 (67297) - http://www.bohemiancoding.com/sketch -->
    <title>Group 22 Copy</title>
    <desc>Created with Sketch.</desc>
    <g id="第二版" stroke="none" stroke-width="1" fill="none" fill-rule="evenodd">
        <g id="Group-22-Copy" fill-rule="nonzero">
            <path d="M11,0.5 C5.20111737,0.5 0.5,5.20111737 0.5,11 C0.5,16.7988826 5.20111737,21.5 11,21.5 C16.7988826,21.5 21.5,16.7988826 21.5,11 C21.5,5.20111737 16.7988826,0.5 11,0.5 Z" id="Shape" stroke="#FFFFFF" opacity="0.6"></path>
            <path d="M11.3357483,10.2142302 L8.14560254,7.0240845 C8.02501943,6.90349517 7.8614699,6.83574827 7.69093524,6.83574827 C7.52040057,6.83574827 7.35685104,6.90349517 7.23626793,7.0240845 L7.0240845,7.23626793 C6.90349517,7.35685104 6.83574827,7.52040057 6.83574827,7.69093524 C6.83574827,7.8614699 6.90349517,8.02501943 7.0240845,8.14560254 L10.2142302,11.3357483 L7.0240845,14.525894 C6.90349517,14.6464771 6.83574827,14.8100266 6.83574827,14.9805613 C6.83574827,15.151096 6.90349517,15.3146455 7.0240845,15.4352286 L7.23626793,15.647412 C7.35685104,15.7680014 7.52040057,15.8357483 7.69093524,15.8357483 C7.8614699,15.8357483 8.02501943,15.7680014 8.14560254,15.647412 L11.3357483,12.4571859 L14.525894,15.647412 C14.6464771,15.7680014 14.8100266,15.8357483 14.9805613,15.8357483 C15.151096,15.8357483 15.3146455,15.7680014 15.4352286,15.647412 L15.647412,15.4352286 C15.7680014,15.3146455 15.8357483,15.151096 15.8357483,14.9805613 C15.8357483,14.8100266 15.7680014,14.6464771 15.647412,14.525894 L12.4571859,11.3357483 L15.647412,8.14560254 C15.7680014,8.02501943 15.8357483,7.8614699 15.8357483,7.69093524 C15.8357483,7.52040057 15.7680014,7.35685104 15.647412,7.23626793 L15.4352286,7.0240845 C15.3146455,6.90349517 15.151096,6.83574827 14.9805613,6.83574827 C14.8100266,6.83574827 14.6464771,6.90349517 14.525894,7.0240845 L11.3357483,10.2142302 Z" id="Path" fill="#FFFFFF"></path>
        </g>
    </g>
</svg>