<?xml version="1.0" encoding="UTF-8"?>
<svg width="19px" height="19px" viewBox="0 0 19 19" version="1.1" xmlns="http://www.w3.org/2000/svg" xmlns:xlink="http://www.w3.org/1999/xlink">
    <!-- Generator: Sketch 52.3 (67297) - http://www.bohemiancoding.com/sketch -->
    <title>Shape Copy 5</title>
    <desc>Created with Sketch.</desc>
    <g id="page-2" stroke="none" stroke-width="1" fill="none" fill-rule="evenodd">
        <path d="M18.4937831,0.900193275 L14.601112,0.00188455014 C14.4610707,-0.0314223271 14.3139293,-0.0172098052 14.1828518,0.0422846779 L9.62001386,2.13596189 L5.42077704,0.382121047 C5.26563805,0.315783219 5.09061277,0.313221873 4.93359903,0.374991613 L0.413537673,2.13833837 C0.164255125,2.2374831 0.000478264771,2.47844216 3.04825224e-05,2.74671676 L3.04825224e-05,15.1685678 C-0.00206619796,15.3844186 0.104114665,15.5869653 0.282831377,15.7080284 C0.461069552,15.8296304 0.687841387,15.8554201 0.888833295,15.7769462 L5.16174093,14.1110351 L9.38236605,15.8743818 C9.55042439,15.9438224 9.73976825,15.9403798 9.90519123,15.8648759 L10.2426511,15.7104048 L11.5924907,15.3824509 C10.8177588,14.1181645 10.1618509,12.7920897 10.1618509,11.9032869 C10.1618509,9.70742114 11.9442094,7.92506256 14.1400752,7.92506256 C16.335941,7.92506256 18.1182996,9.70742114 18.1182996,11.9032869 C18.1182996,12.5568184 17.7618279,13.4503742 17.2651439,14.3819536 L18.2014763,14.5982131 C18.39504,14.6404192 18.5973189,14.5932062 18.7521979,14.4696718 C18.9070769,14.3461373 18.9980841,14.1594197 18.9999729,13.961317 L18.9999729,1.53708941 C19.0027482,1.23191603 18.7917058,0.966379088 18.4937831,0.900193275 Z M5.74397807,11.237873 C5.72298709,11.5880201 5.43290457,11.8612332 5.08212891,11.8612332 C4.73135326,11.8612332 4.44127074,11.5880201 4.42027976,11.237873 L4.42027976,3.72344927 C4.44127074,3.37330224 4.73135326,3.10008909 5.08212891,3.10008909 C5.43290457,3.10008909 5.72298709,3.37330224 5.74397807,3.72344927 L5.74397807,11.237873 Z M10.1618509,9.0277484 C10.1765936,9.27366886 10.0537691,9.50748754 9.84291429,9.6349021 C9.63205949,9.76231665 9.36794394,9.76231665 9.15708914,9.6349021 C8.94623433,9.50748754 8.82340987,9.27366886 8.83815256,9.0277484 L8.83815256,5.04952405 C8.85914354,4.69937702 9.14922606,4.42616388 9.50000172,4.42616388 C9.85077737,4.42616388 10.1408599,4.69937702 10.1618509,5.04952405 L10.1618509,9.0277484 Z M15.0241251,6.37797531 C15.0031341,6.72812234 14.7130516,7.00133548 14.3622759,7.00133548 C14.0115003,7.00133548 13.7214177,6.72812234 13.7004268,6.37797531 L13.7004268,2.84177589 C13.6856841,2.59585543 13.8085085,2.36203675 14.0193633,2.23462219 C14.2302181,2.10720763 14.4943337,2.10720763 14.7051885,2.23462219 C14.9160433,2.36203675 15.0388678,2.59585543 15.0241251,2.84177589 L15.0241251,6.37797531 Z M14.1163104,8.92080689 C13.0121844,8.92102352 11.9921061,9.51046838 11.4405617,10.4669689 C10.8890173,11.4234694 10.8898602,12.6016053 11.4427726,13.5573157 L11.4403961,13.5573157 L11.7350794,14.1538117 L12.31494,15.3254154 L14.113934,18.9685563 L16.5640829,14.0088465 L16.7898483,13.5549392 L16.7850954,13.5549392 C17.0565234,13.0843255 17.2006765,12.5511228 17.2033555,12.0078519 C17.2020449,10.3034672 15.8206952,8.92211745 14.1163104,8.92080689 Z M14.113934,12.9323019 C13.5879439,12.9323011 13.1137913,12.6153247 12.9127263,12.129281 C12.7116613,11.6432373 12.8233144,11.0839267 13.1955857,10.712336 C13.567857,10.3407453 14.1273709,10.2301158 14.6130459,10.4320698 C15.0987208,10.6340239 15.4148291,11.1087557 15.4138675,11.6347449 C15.4112538,12.3512076 14.8304003,12.9309993 14.113934,12.9323019 Z" id="Shape-Copy-5" fill="#FFFFFF" fill-rule="nonzero"></path>
    </g>
</svg>