<?xml version="1.0" encoding="UTF-8"?>
<svg width="18px" height="20px" viewBox="0 0 18 20" version="1.1" xmlns="http://www.w3.org/2000/svg" xmlns:xlink="http://www.w3.org/1999/xlink">
    <!-- Generator: Sketch 52.3 (67297) - http://www.bohemiancoding.com/sketch -->
    <title>受理开单 copy 2</title>
    <desc>Created with Sketch.</desc>
    <g id="page-2" stroke="none" stroke-width="1" fill="none" fill-rule="evenodd">
        <g id="受理开单-copy-2" transform="translate(-2.000000, -1.015722)">
            <g id="Group">
                <rect id="Rectangle" fill="#000000" opacity="0" x="0" y="0" width="22" height="22"></rect>
                <path d="M15.1765625,3.27636719 C14.8478516,2.32890625 14.2376953,1.46523438 13.0925781,1.46523438 L8.1640625,1.46523438 C7.01679687,1.46523438 6.40664062,2.32890625 6.08007812,3.27636719 C3.80917969,3.42675781 2.00664063,5.38183594 2.00664063,7.77304688 L2.00664063,16.1154297 C2.00664063,18.6011719 3.95957031,20.625 6.359375,20.625 L14.8994141,20.625 C17.2970703,20.625 19.25,18.6011719 19.25,16.1154297 L19.25,7.77304688 C19.25,5.38183594 17.4453125,3.42675781 15.1765625,3.27636719 Z M8.43476563,2.75644531 L13.3353516,2.75644531 C14.2570312,2.75644531 14.5578125,4.76308594 14.5599609,5.73417969 L7.20800781,5.73417969 C7.21015625,4.7609375 7.51308594,2.75644531 8.43476563,2.75644531 Z M16.8695312,9.68945312 L10.3447266,17.3013672 L5.5859375,13.3332031 L6.38300781,12.4287109 L10.2007812,15.6105469 L15.9285156,8.92675781 L16.8695312,9.68945312 Z" id="Shape" fill="#FFFFFF" fill-rule="nonzero"></path>
            </g>
        </g>
    </g>
</svg>