<?xml version="1.0" encoding="UTF-8"?>
<svg width="19px" height="19px" viewBox="0 0 19 19" version="1.1" xmlns="http://www.w3.org/2000/svg" xmlns:xlink="http://www.w3.org/1999/xlink">
    <!-- Generator: Sketch 52.3 (67297) - http://www.bohemiancoding.com/sketch -->
    <title>Shape Copy</title>
    <desc>Created with Sketch.</desc>
    <g id="page-2" stroke="none" stroke-width="1" fill="none" fill-rule="evenodd">
        <path d="M18.4937831,0.915915113 L14.601112,0.0176063887 C14.4610707,-0.0157004886 14.3139293,-0.0014879667 14.1828518,0.0580065164 L9.62001386,2.15168373 L5.42077704,0.397842886 C5.26563805,0.331505057 5.09061277,0.328943712 4.93359903,0.390713451 L0.413537673,2.15406021 C0.164255125,2.25320494 0.000478264771,2.49416399 3.04825224e-05,2.7624386 L3.04825224e-05,15.1842897 C-0.00206619796,15.4001404 0.104114665,15.6026871 0.282831377,15.7237502 C0.461069552,15.8453522 0.687841387,15.871142 0.888833295,15.7926681 L5.16174093,14.1267569 L9.38236605,15.8901037 C9.55042439,15.9595443 9.73976825,15.9561017 9.90519123,15.8805978 L10.2426511,15.7261267 L11.5924907,15.3981727 C10.8177588,14.1338863 10.1618509,12.8078116 10.1618509,11.9190087 C10.1618509,9.72314298 11.9442094,7.9407844 14.1400752,7.9407844 C16.335941,7.9407844 18.1182996,9.72314298 18.1182996,11.9190087 C18.1182996,12.5725402 17.7618279,13.466096 17.2651439,14.3976754 L18.2014763,14.6139349 C18.39504,14.656141 18.5973189,14.6089281 18.7521979,14.4853936 C18.9070769,14.3618592 18.9980841,14.1751416 18.9999729,13.9770388 L18.9999729,1.55281125 C19.0027482,1.24763787 18.7917058,0.982100927 18.4937831,0.915915113 Z M5.74397807,11.2535949 C5.72298709,11.6037419 5.43290457,11.8769551 5.08212891,11.8769551 C4.73135326,11.8769551 4.44127074,11.6037419 4.42027976,11.2535949 L4.42027976,3.7391711 C4.44127074,3.38902408 4.73135326,3.11581093 5.08212891,3.11581093 C5.43290457,3.11581093 5.72298709,3.38902408 5.74397807,3.7391711 L5.74397807,11.2535949 Z M10.1618509,9.04347024 C10.1765936,9.2893907 10.0537691,9.52320937 9.84291429,9.65062393 C9.63205949,9.77803849 9.36794394,9.77803849 9.15708914,9.65062393 C8.94623433,9.52320937 8.82340987,9.2893907 8.83815256,9.04347024 L8.83815256,5.06524589 C8.85914354,4.71509886 9.14922606,4.44188572 9.50000172,4.44188572 C9.85077737,4.44188572 10.1408599,4.71509886 10.1618509,5.06524589 L10.1618509,9.04347024 Z M15.0241251,6.39369715 C15.0031341,6.74384418 14.7130516,7.01705732 14.3622759,7.01705732 C14.0115003,7.01705732 13.7214177,6.74384418 13.7004268,6.39369715 L13.7004268,2.85749773 C13.6856841,2.61157727 13.8085085,2.37775859 14.0193633,2.25034403 C14.2302181,2.12292947 14.4943337,2.12292947 14.7051885,2.25034403 C14.9160433,2.37775859 15.0388678,2.61157727 15.0241251,2.85749773 L15.0241251,6.39369715 Z M14.1163104,8.93652872 C13.0121844,8.93674536 11.9921061,9.52619022 11.4405617,10.4826907 C10.8890173,11.4391912 10.8898602,12.6173272 11.4427726,13.5730375 L11.4403961,13.5730375 L11.7350794,14.1695335 L12.31494,15.3411372 L14.113934,18.9842782 L16.5640829,14.0245684 L16.7898483,13.570661 L16.7850954,13.570661 C17.0565234,13.1000473 17.2006765,12.5668447 17.2033555,12.0235738 C17.2020449,10.319189 15.8206952,8.93783929 14.1163104,8.93652872 Z M14.113934,12.9480238 C13.5879439,12.9480229 13.1137913,12.6310465 12.9127263,12.1450028 C12.7116613,11.6589591 12.8233144,11.0996486 13.1955857,10.7280578 C13.567857,10.3564671 14.1273709,10.2458377 14.6130459,10.4477917 C15.0987208,10.6497457 15.4148291,11.1244775 15.4138675,11.6504667 C15.4112538,12.3669295 14.8304003,12.9467211 14.113934,12.9480238 Z" id="Shape-Copy" fill="#7A8BA8" fill-rule="nonzero"></path>
    </g>
</svg>