<?xml version="1.0" encoding="UTF-8"?>
<svg width="17px" height="19px" viewBox="0 0 17 19" version="1.1" xmlns="http://www.w3.org/2000/svg" xmlns:xlink="http://www.w3.org/1999/xlink">
    <!-- Generator: Sketch 52.3 (67297) - http://www.bohemiancoding.com/sketch -->
    <title>Shape Copy</title>
    <desc>Created with Sketch.</desc>
    <g id="page-2" stroke="none" stroke-width="1" fill="none" fill-rule="evenodd">
        <path d="M15.7661724,8.78657599 C15.7661724,8.78657599 12.9947146,9.37727544 12.2275483,9.58346299 C11.4678122,9.78965054 10.5260367,8.29618399 10.2734105,8.24231517 C10.111804,8.71041662 9.58983375,10.0850003 9.27776611,11.0174881 C9.76072793,11.0026277 12.2665568,11.7623638 12.3575765,12.2044596 C12.461599,12.6521281 13.6318527,17.5003217 13.6318527,17.5003217 C13.6318527,17.5003217 14.1278173,18.5424047 12.7197978,18.9232016 C11.3099208,19.3039984 11.2467643,18.14489 11.2467643,18.14489 C11.2467643,18.14489 10.2622652,14.426084 10.1749606,14.201321 C10.0932286,13.976558 8.25797366,13.5994763 7.83816838,13.7127865 C7.41464802,13.8279544 6.50816583,17.0024995 5.61282892,17.2179748 C4.46300829,17.4966066 1.09527837,15.4514491 1.09527837,15.4514491 C1.09527837,15.4514491 -0.234724178,15.1226635 0.036477459,13.874393 C0.313251732,12.6354102 1.60424583,12.9734835 1.60424583,12.9734835 C1.60424583,12.9734835 3.98933419,14.2849105 4.26425092,14.1307343 C4.54288274,13.9747005 4.7007741,13.0700758 5.10757656,12.1933144 C5.12429447,11.8626713 6.06049738,9.23424444 6.06049738,9.23424444 C6.06049738,9.23424444 6.57875256,7.48443662 6.37256502,7.37484144 C6.08836056,7.22438026 5.79115329,7.54573562 5.63511947,7.81322217 C5.47908565,8.07885117 4.86052301,9.17294544 3.82587019,10.5976828 C2.90638519,11.8663864 1.26617255,10.6887025 1.94789174,9.50358854 C2.5144431,8.5172319 4.02277001,5.69747789 5.10757656,5.16621989 C6.19981329,4.6312468 8.08336438,4.33403953 9.68642611,4.70926371 C11.296918,5.07705771 12.4263057,6.90116735 12.7420884,7.14264826 C13.0504409,7.37484144 15.220054,6.67268926 15.220054,6.67268926 C15.220054,6.67268926 16.4553218,6.24359626 16.7618168,7.37112635 C17.0701693,8.50608662 15.7661724,8.78657599 15.7661724,8.78657599 Z M10.6913582,4.13899725 C9.55454039,4.4473498 8.39728957,3.78792116 8.09265211,2.66224861 C7.7898722,1.5421487 8.45301593,0.383040337 9.58983375,0.0746877911 C10.724794,-0.231807209 11.8857599,0.433194065 12.1885398,1.55329398 C12.4950348,2.67896652 11.8244609,3.83064471 10.6913582,4.13899725 Z" id="Shape-Copy" fill="#7A8BA8" fill-rule="nonzero"></path>
    </g>
</svg>