<?xml version="1.0" encoding="UTF-8"?>
<svg width="21px" height="20px" viewBox="0 0 21 20" version="1.1" xmlns="http://www.w3.org/2000/svg" xmlns:xlink="http://www.w3.org/1999/xlink">
    <!-- Generator: Sketch 52.3 (67297) - http://www.bohemiancoding.com/sketch -->
    <title>icon_feedback copy 2</title>
    <desc>Created with Sketch.</desc>
    <g id="page-2" stroke="none" stroke-width="1" fill="none" fill-rule="evenodd">
        <g id="icon_feedback-copy-2" transform="translate(-3.000000, -3.015722)">
            <g id="Group">
                <rect id="Rectangle" fill="#000000" opacity="0" x="0" y="0" width="25.3333333" height="25.3333333"></rect>
                <path d="M7.91666667,3.95833333 L3.95833333,7.91666667 L7.91666667,7.91666667 L7.91666667,3.95833333 Z M23.5916667,3.325 C23.275,3.00833333 22.8,3.00833333 22.4833333,3.325 L15.2,10.45 C14.8833333,10.7666667 14.8833333,11.2416667 15.2,11.5583333 C15.3583333,11.875 15.675,11.875 15.8333333,11.875 C15.9916667,11.875 16.3083333,11.875 16.4666667,11.7166667 L23.5916667,4.59166667 C23.75,4.275 23.75,3.64166667 23.5916667,3.325 Z" id="Shape" fill="#FFFFFF" fill-rule="nonzero"></path>
                <path d="M15.8333333,13.4583333 C15.2,13.4583333 14.5666667,13.1416667 14.0916667,12.6666667 C13.1416667,11.7166667 13.4583333,10.1333333 14.25,9.34166667 L19,4.59166667 C18.8416667,3.8 18.2083333,3.16666667 17.4166667,3.16666667 L9.5,3.16666667 L9.5,9.5 L3.16666667,9.5 L3.16666667,19.7916667 C3.16666667,21.0583333 4.275,22.1666667 5.54166667,22.1666667 L16.625,22.1666667 C17.8916667,22.1666667 19,21.0583333 19,19.7916667 L19,11.2416667 L17.575,12.6666667 C17.1,13.3 16.4666667,13.4583333 15.8333333,13.4583333 Z M11.7166667,6.33333333 L14.25,6.33333333 C14.725,6.33333333 15.0416667,6.65 15.0416667,7.125 C15.0416667,7.6 14.725,7.91666667 14.25,7.91666667 L11.7166667,7.91666667 C11.4,7.91666667 10.925,7.6 10.925,7.125 C10.925,6.65 11.4,6.33333333 11.7166667,6.33333333 Z M7.125,11.0833333 L11.875,11.0833333 C12.35,11.0833333 12.6666667,11.4 12.6666667,11.875 C12.6666667,12.35 12.35,12.6666667 11.875,12.6666667 L7.125,12.6666667 C6.65,12.6666667 6.33333333,12.35 6.33333333,11.875 C6.33333333,11.4 6.65,11.0833333 7.125,11.0833333 Z M13.4583333,19 L7.125,19 C6.65,19 6.33333333,18.6833333 6.33333333,18.2083333 C6.33333333,17.7333333 6.65,17.4166667 7.125,17.4166667 L13.4583333,17.4166667 C13.9333333,17.4166667 14.25,17.7333333 14.25,18.2083333 C14.25,18.6833333 13.9333333,19 13.4583333,19 Z M15.0416667,15.8333333 L7.125,15.8333333 C6.65,15.8333333 6.33333333,15.5166667 6.33333333,15.0416667 C6.33333333,14.5666667 6.65,14.25 7.125,14.25 L15.0416667,14.25 C15.5166667,14.25 15.8333333,14.5666667 15.8333333,15.0416667 C15.8333333,15.5166667 15.5166667,15.8333333 15.0416667,15.8333333 Z" id="Shape" fill="#FFFFFF" fill-rule="nonzero"></path>
            </g>
        </g>
    </g>
</svg>