<?xml version="1.0" encoding="UTF-8"?>
<svg width="17px" height="19px" viewBox="0 0 17 19" version="1.1" xmlns="http://www.w3.org/2000/svg" xmlns:xlink="http://www.w3.org/1999/xlink">
    <!-- Generator: Sketch 52.3 (67297) - http://www.bohemiancoding.com/sketch -->
    <title>Shape Copy 6</title>
    <desc>Created with Sketch.</desc>
    <g id="page-2" stroke="none" stroke-width="1" fill="none" fill-rule="evenodd">
        <path d="M15.7661724,8.77085415 C15.7661724,8.77085415 12.9947146,9.36155361 12.2275483,9.56774115 C11.4678122,9.7739287 10.5260367,8.28046215 10.2734105,8.22659333 C10.111804,8.69469479 9.58983375,10.0692784 9.27776611,11.0017662 C9.76072793,10.9869059 12.2665568,11.746642 12.3575765,12.1887378 C12.461599,12.6364062 13.6318527,17.4845999 13.6318527,17.4845999 C13.6318527,17.4845999 14.1278173,18.5266829 12.7197978,18.9074797 C11.3099208,19.2882765 11.2467643,18.1291682 11.2467643,18.1291682 C11.2467643,18.1291682 10.2622652,14.4103622 10.1749606,14.1855992 C10.0932286,13.9608362 8.25797366,13.5837544 7.83816838,13.6970647 C7.41464802,13.8122325 6.50816583,16.9867777 5.61282892,17.202253 C4.46300829,17.4808848 1.09527837,15.4357273 1.09527837,15.4357273 C1.09527837,15.4357273 -0.234724178,15.1069417 0.036477459,13.8586712 C0.313251732,12.6196883 1.60424583,12.9577616 1.60424583,12.9577616 C1.60424583,12.9577616 3.98933419,14.2691887 4.26425092,14.1150124 C4.54288274,13.9589786 4.7007741,13.054354 5.10757656,12.1775925 C5.12429447,11.8469494 6.06049738,9.21852261 6.06049738,9.21852261 C6.06049738,9.21852261 6.57875256,7.46871478 6.37256502,7.3591196 C6.08836056,7.20865842 5.79115329,7.53001378 5.63511947,7.79750033 C5.47908565,8.06312933 4.86052301,9.15722361 3.82587019,10.581961 C2.90638519,11.8506645 1.26617255,10.6729807 1.94789174,9.4878667 C2.5144431,8.50151006 4.02277001,5.68175605 5.10757656,5.15049805 C6.19981329,4.61552496 8.08336438,4.31831769 9.68642611,4.69354187 C11.296918,5.06133587 12.4263057,6.88544551 12.7420884,7.12692642 C13.0504409,7.3591196 15.220054,6.65696742 15.220054,6.65696742 C15.220054,6.65696742 16.4553218,6.22787442 16.7618168,7.35540451 C17.0701693,8.49036479 15.7661724,8.77085415 15.7661724,8.77085415 Z M10.6913582,4.12327541 C9.55454039,4.43162796 8.39728957,3.77219932 8.09265211,2.64652678 C7.7898722,1.52642686 8.45301593,0.367318499 9.58983375,0.0589659526 C10.724794,-0.247529048 11.8857599,0.417472226 12.1885398,1.53757214 C12.4950348,2.66324468 11.8244609,3.81492287 10.6913582,4.12327541 Z" id="Shape-Copy-6" fill="#FFFFFF" fill-rule="nonzero"></path>
    </g>
</svg>