<?xml version="1.0" encoding="UTF-8"?>
<svg width="18px" height="18px" viewBox="0 0 18 18" version="1.1" xmlns="http://www.w3.org/2000/svg" xmlns:xlink="http://www.w3.org/1999/xlink">
    <!-- Generator: Sketch 52.3 (67297) - http://www.bohemiancoding.com/sketch -->
    <title>Group Copy</title>
    <desc>Created with Sketch.</desc>
    <g id="第二版" stroke="none" stroke-width="1" fill="none" fill-rule="evenodd">
        <g id="Group-Copy" fill="#96A7C4" fill-rule="nonzero">
            <path d="M14.8705122,0.236842105 L2.65580357,0.236842105 C1.32546992,0.236842105 0.236842105,1.32546992 0.236842105,2.65580357 L0.236842105,12.4325188 C0.236842105,13.7647556 1.32546992,14.8533835 2.65580357,14.8533835 L6.32706767,14.8533835 L8.76315789,17.2894737 L11.1992481,14.8533835 L14.8705122,14.8533835 C16.2008459,14.8533835 17.2894737,13.7647556 17.2894737,12.434422 L17.2894737,2.65580357 C17.2894737,1.32546992 16.2008459,0.236842105 14.8705122,0.236842105 Z M2.67293233,8.76315789 L11.1992481,8.76315789 L11.1992481,9.98120301 L2.67293233,9.98120301 L2.67293233,8.76315789 Z M14.8533835,7.54511278 L2.67293233,7.54511278 L2.67293233,6.32706767 L14.8533835,6.32706767 L14.8533835,7.54511278 Z M14.8533835,5.10902256 L2.67293233,5.10902256 L2.67293233,3.89097744 L14.8533835,3.89097744 L14.8533835,5.10902256 Z" id="Shape"></path>
        </g>
    </g>
</svg>