<?xml version="1.0" encoding="UTF-8"?>
<svg width="19px" height="22px" viewBox="0 0 19 22" version="1.1" xmlns="http://www.w3.org/2000/svg" xmlns:xlink="http://www.w3.org/1999/xlink">
    <!-- Generator: Sketch 52.3 (67297) - http://www.bohemiancoding.com/sketch -->
    <title>fire</title>
    <desc>Created with Sketch.</desc>
    <g id="第二版" stroke="none" stroke-width="1" fill="none" fill-rule="evenodd">
        <g id="fire" transform="translate(-3.000000, -1.000000)">
            <g id="Group">
                <rect id="Rectangle" fill="#000000" opacity="0" x="0" y="0" width="24" height="24"></rect>
                <path d="M8.3071908,23 C6.85911937,19.9490714 7.6306908,18.2008571 8.74326223,16.554 C9.96190508,14.75 10.2761908,12.9648571 10.2761908,12.9648571 C10.2761908,12.9648571 11.2339765,14.2259286 10.8513337,16.1980714 C12.5437622,14.2903571 12.8619765,11.2512143 12.6074051,10.0867857 C16.4322622,12.7943571 18.0665479,18.6557857 15.8641908,23 C27.5784051,16.2852857 18.7768337,6.23914286 17.2446908,5.10692857 C17.7554051,6.23835714 17.8520479,8.15471429 16.8204051,9.08421429 C15.0737622,2.375 10.7546908,1 10.7546908,1 C11.2654051,4.46028571 8.90354794,8.2435 6.62576223,11.0705 C6.54561937,9.69078571 6.46076223,8.7385 5.74497651,7.4185 C5.58390508,9.92492857 3.69347651,11.9677857 3.1811908,14.4789286 C2.48740508,17.8795 3.70054794,20.3694286 8.30876223,22.9992143 L8.3071908,23 Z" id="Path" fill="#0A2A5E"></path>
            </g>
        </g>
    </g>
</svg>