<?xml version="1.0" encoding="UTF-8"?>
<svg width="32px" height="35px" viewBox="0 0 32 35" version="1.1" xmlns="http://www.w3.org/2000/svg" xmlns:xlink="http://www.w3.org/1999/xlink">
    <!-- Generator: Sketch 52.3 (67297) - http://www.bohemiancoding.com/sketch -->
    <title>Group 31 Copy</title>
    <desc>Created with Sketch.</desc>
    <g id="第二版" stroke="none" stroke-width="1" fill="none" fill-rule="evenodd">
        <g id="Group-31-Copy">
            <g id="jingbao" fill="#0A2A5E" fill-rule="nonzero">
                <path d="M25.4814815,19.0126591 C25.3220521,19.004255 25.161523,19 25,19 C24.3521004,19 23.7201909,19.0684619 23.1111111,19.198546 L23.1111111,16.5925926 C23.1111111,12.6814815 19.9111111,9.48148148 16,9.48148148 C12.0888889,9.48148148 8.88888889,12.6814815 8.88888889,16.5925926 L8.88888889,28.4444444 L16.0107824,28.4444444 C16.0508574,29.2685348 16.2017721,30.0635214 16.4489371,30.8148148 L1.18518519,30.8148148 C0.533333333,30.8148148 0,30.2814815 0,29.6296296 C0,28.9777778 0.533333333,28.4444444 1.18518519,28.4444444 L6.51851852,28.4444444 L6.51851852,16.5925926 C6.51851852,11.3777778 10.7851852,7.11111111 16,7.11111111 C21.2148148,7.11111111 25.4814815,11.3777778 25.4814815,16.5925926 L25.4814815,19.0126591 Z M16,4.74074074 C15.3481481,4.74074074 14.8148148,4.20740741 14.8148148,3.55555556 L14.8148148,1.18518519 C14.8148148,0.533333333 15.3481481,-3.55271368e-15 16,-3.55271368e-15 C16.6518519,-3.55271368e-15 17.1851852,0.533333333 17.1851852,1.18518519 L17.1851852,3.55555556 C17.1851852,4.20740741 16.6518519,4.74074074 16,4.74074074 Z M25.0074074,7.17037037 C24.5925926,7.64444444 23.8222222,7.64444444 23.3481481,7.17037037 C22.8740741,6.6962963 22.8740741,5.98518519 23.3481481,5.51111111 L25.0074074,3.85185185 C25.4814815,3.37777778 26.1925926,3.37777778 26.6666667,3.85185185 C27.1407407,4.32592593 27.1407407,5.03703704 26.6666667,5.51111111 L25.0074074,7.17037037 Z M7.22962963,7.17037037 L5.57037037,5.51111111 C5.0962963,5.03703704 5.0962963,4.32592593 5.57037037,3.85185185 C6.04444444,3.37777778 6.75555556,3.37777778 7.22962963,3.85185185 L8.88888889,5.51111111 C9.36296296,5.98518519 9.36296296,6.6962963 8.88888889,7.17037037 C8.41481481,7.64444444 7.7037037,7.64444444 7.22962963,7.17037037 Z M1.18518519,14.8148148 C0.533333333,14.8148148 0,14.2814815 0,13.6296296 C0,12.9777778 0.533333333,12.4444444 1.18518519,12.4444444 L3.55555556,12.4444444 C4.20740741,12.4444444 4.74074074,12.9777778 4.74074074,13.6296296 C4.74074074,14.2814815 4.20740741,14.8148148 3.55555556,14.8148148 L1.18518519,14.8148148 Z M28.4444444,14.8148148 C27.7925926,14.8148148 27.2592593,14.2814815 27.2592593,13.6296296 C27.2592593,12.9777778 27.7925926,12.4444444 28.4444444,12.4444444 L30.8148148,12.4444444 C31.4666667,12.4444444 32,12.9777778 32,13.6296296 C32,14.2814815 31.4666667,14.8148148 30.8148148,14.8148148 L28.4444444,14.8148148 Z M12.4444444,16.5925926 C13.0962963,16.5925926 13.6296296,17.1259259 13.6296296,17.7777778 L13.6296296,24.8888889 C13.6296296,25.5407407 13.0962963,26.0740741 12.4444444,26.0740741 C11.7925926,26.0740741 11.2592593,25.5407407 11.2592593,24.8888889 L11.2592593,17.7777778 C11.2592593,17.1259259 11.7925926,16.5925926 12.4444444,16.5925926 Z" id="Combined-Shape"></path>
            </g>
            <g id="_chaoshi" transform="translate(18.000000, 21.000000)">
                <path d="M0.013182678,7.00376647 C0.013182678,10.8645593 3.14297366,13.9943503 7.00376648,13.9943503 C10.8645593,13.9943503 13.9943503,10.8645593 13.9943503,7.00376647 C13.9943503,3.14297365 10.8645593,0.0131826695 7.00376648,0.0131826695 C3.14297366,0.0131826695 0.013182678,3.14297365 0.013182678,7.00376647 Z" id="Path" fill="#27BB53"></path>
                <path d="M11.1016949,8.58990583 L7.72693032,6.62772129 L7.72693032,2.62139359 C7.72693032,2.22998908 7.40963427,1.91269303 7.01822975,1.91269303 C6.62682524,1.91269303 6.30952919,2.22998908 6.30952919,2.62139359 L6.30952919,6.87841808 C6.23381927,7.18902458 6.37104505,7.51248536 6.64700564,7.67389831 L10.4026365,9.84338983 C10.7487766,10.043086 11.1912643,9.92436979 11.3909605,9.57822975 C11.5906566,9.2320897 11.4719404,8.78960201 11.1258004,8.58990583 L11.1016949,8.58990583 Z" id="Path" fill="#FFFFFF"></path>
            </g>
        </g>
    </g>
</svg>