<?xml version="1.0" encoding="UTF-8"?>
<svg width="14px" height="20px" viewBox="0 0 14 20" version="1.1" xmlns="http://www.w3.org/2000/svg" xmlns:xlink="http://www.w3.org/1999/xlink">
    <!-- Generator: Sketch 52.3 (67297) - http://www.bohemiancoding.com/sketch -->
    <title>Group 77 Copy</title>
    <desc>Created with Sketch.</desc>
    <g id="第二版" stroke="none" stroke-width="1" fill="none" fill-rule="evenodd">
        <g id="Group-77-Copy" fill="#000000" fill-rule="nonzero">
            <g id="HelpTow">
                <path d="M2.50721154,11.8060296 C0.979326923,10.5882632 0,8.72345468 0,6.63632916 C0,2.9697573 3.01201923,0 6.73076923,0 C10.4495192,0 13.4615385,2.9697573 13.4615385,6.63632916 C13.4615385,8.72345468 12.4822115,10.5882632 10.9543269,11.8060296 C10.7052885,12.1079826 10.45625,12.4165719 10.3115385,12.7251612 L9.28846154,15.6517823 C9.04278846,16.1826887 8.50432692,16.5244596 7.91201923,16.5244596 L5.54951923,16.5244596 C4.95721154,16.5244596 4.41875,16.1826887 4.17307692,15.6517823 L3.15336538,12.721843 C3.00865385,12.4132537 2.75625,12.1079826 2.50721154,11.8060296 Z M5.72788462,17.3208191 L7.74038462,17.3208191 C8.18461538,17.3208191 8.54471154,17.6758627 8.54471154,18.1138604 C8.54471154,18.2067691 8.52788462,18.2963595 8.49759615,18.3826318 L8.30240385,18.9168563 C8.18798077,19.2320819 7.88173077,19.4444444 7.54182692,19.4444444 L5.94326923,19.4444444 C5.60673077,19.4444444 5.30384615,19.2387182 5.18605769,18.9268108 L4.98076923,18.3826318 C4.82596154,17.9778157 5.03461538,17.5232272 5.44855769,17.3705916 C5.53605769,17.3374099 5.63028846,17.3208191 5.72788462,17.3208191 Z M5.60673077,9.28090633 L7.21201923,9.28090633 L7.21201923,8.92254456 C7.21201923,8.68363671 7.2625,8.49118316 7.36682692,8.34186576 C7.47115385,8.19254835 7.71682692,7.98018582 8.10384615,7.69482366 C8.66923077,7.29664391 9.05288462,6.93828214 9.25480769,6.61973834 C9.45673077,6.30119454 9.55769231,5.92292378 9.55769231,5.48492605 C9.55769231,4.82792947 9.31201923,4.3003413 8.82067308,3.90879788 C8.32932692,3.51725446 7.66971154,3.31816458 6.83509615,3.31816458 C5.82548077,3.31816458 4.86971154,3.56702692 3.96778846,4.06475161 L4.62740385,5.37210846 C5.40480769,4.98056504 6.09471154,4.78479333 6.70048077,4.78479333 C7.04711538,4.78479333 7.31971154,4.85115662 7.51153846,4.98720137 C7.70673077,5.12324611 7.80096154,5.31901782 7.80096154,5.57783466 C7.80096154,5.81010618 7.73365385,6.01915055 7.59903846,6.20496777 C7.46442308,6.39078498 7.18509615,6.63632916 6.76105769,6.93496397 C6.32019231,7.25350777 6.01730769,7.55546075 5.85240385,7.83750474 C5.6875,8.11954873 5.60336538,8.45468335 5.60336538,8.83627228 L5.60336538,9.28090633 L5.60673077,9.28090633 Z M5.41490385,11.3248957 C5.41490385,11.6467577 5.50913462,11.8989382 5.69423077,12.0748009 C5.87932692,12.2506636 6.14182692,12.3402541 6.48173077,12.3402541 C6.81153846,12.3402541 7.07067308,12.2506636 7.25913462,12.0681646 C7.44423077,11.8856655 7.53846154,11.6401214 7.53846154,11.3248957 C7.53846154,10.9997156 7.44759615,10.7475351 7.2625,10.5716724 C7.07740385,10.3958096 6.81826923,10.3095374 6.48509615,10.3095374 C6.13846154,10.3095374 5.87259615,10.3958096 5.69086538,10.565036 C5.50576923,10.7375806 5.41490385,10.9930793 5.41490385,11.3248957 Z" id="Shape"></path>
            </g>
        </g>
    </g>
</svg>