<?xml version="1.0" encoding="UTF-8"?>
<svg width="24px" height="16px" viewBox="0 0 24 16" version="1.1" xmlns="http://www.w3.org/2000/svg" xmlns:xlink="http://www.w3.org/1999/xlink">
    <!-- Generator: Sketch 52.3 (67297) - http://www.bohemiancoding.com/sketch -->
    <title>Path</title>
    <desc>Created with Sketch.</desc>
    <g id="第二版" stroke="none" stroke-width="1" fill="none" fill-rule="evenodd">
        <g id="返回-copy" transform="translate(0.000000, -4.000000)" fill="#FFFFFF">
            <g id="Group">
                <path d="M22.5,11.25 L3.3,11.25 L8.925,5.625 C9.225,5.325 9.225,4.875 8.925,4.575 C8.625,4.275 8.175,4.275 7.875,4.575 L0.975,11.475 C0.9,11.55 0.825,11.625 0.825,11.7 C0.75,11.85 0.75,12.075 0.825,12.3 C0.9,12.375 0.9,12.45 0.975,12.525 L7.875,19.425 C8.175,19.725 8.625,19.725 8.925,19.425 C9.225,19.125 9.225,18.675 8.925,18.375 L3.3,12.75 L22.5,12.75 C22.95,12.75 23.25,12.45 23.25,12 C23.25,11.55 22.95,11.25 22.5,11.25 Z" id="Path"></path>
            </g>
        </g>
    </g>
</svg>