<?xml version="1.0" encoding="UTF-8"?>
<svg width="18px" height="17px" viewBox="0 0 18 17" version="1.1" xmlns="http://www.w3.org/2000/svg" xmlns:xlink="http://www.w3.org/1999/xlink">
    <!-- Generator: Sketch 52.3 (67297) - http://www.bohemiancoding.com/sketch -->
    <title>形状</title>
    <desc>Created with Sketch.</desc>
    <g id="第二版" stroke="none" stroke-width="1" fill="none" fill-rule="evenodd">
        <g id="Group-7-Copy" fill="#FFFFFF" fill-rule="nonzero">
            <g id="时间复制-2">
                <g id="编组">
                    <path d="M14.0061048,8.56760917 L15.7472703,8.56760917 L15.7472703,9.54287193 L14.0061048,9.54287193 L14.0061048,8.56760917 Z M9.12977299,13.2083547 L10.1050357,13.2083547 L10.1050357,14.9495202 L9.12977299,14.9495202 L9.12977299,13.2083547 Z M14.1296523,5.23216424 L12.8984869,6.46332964 L12.2088786,5.77372134 L13.440044,4.54255594 L14.1296523,5.23216424 Z M13.4401045,13.5681375 L12.2089391,12.3369721 L12.8985474,11.6473638 L14.1297128,12.8785292 L13.4401045,13.5681375 Z M10.0203492,0.960206977 C14.4199143,0.960206977 17.9992355,4.53990595 17.9996312,8.9396869 C17.9996312,13.33927 14.4199323,16.9187711 10.0207269,16.9187711 C5.88689566,16.9187711 2.47782901,13.7573425 2.08162963,9.72555608 L1.0008504,10.8063353 L0.00864311133,9.81412803 L2.75705369,7.07264274 L5.49835907,9.81393013 L4.50615178,10.8061374 L3.50536431,9.81898471 C3.93671187,13.0303114 6.693145,15.5155784 10.0203492,15.5155784 C13.646025,15.5155784 16.5960788,12.5655066 16.5960788,8.93947103 C16.5960788,5.31323761 13.6460249,2.36318375 10.0203492,2.36318375 L10.0203492,0.960206977 Z M6.83580628,10.6886551 L9.14837237,8.37515364 L9.14837237,3.69927789 L10.6271677,3.69927789 L10.6271677,8.96013503 C10.5243495,9.06295331 7.88228278,11.7347718 7.88228278,11.7347718 L6.83580628,10.6886551 Z" id="形状"></path>
                </g>
            </g>
        </g>
    </g>
</svg>