<?xml version="1.0" encoding="UTF-8"?>
<svg width="16px" height="20px" viewBox="0 0 16 20" version="1.1" xmlns="http://www.w3.org/2000/svg" xmlns:xlink="http://www.w3.org/1999/xlink">
    <!-- Generator: Sketch 52.3 (67297) - http://www.bohemiancoding.com/sketch -->
    <title>Shape</title>
    <desc>Created with Sketch.</desc>
    <g id="第二版" stroke="none" stroke-width="1" fill="none" fill-rule="evenodd">
        <g id="bofang-copy" fill="#F25CC8" fill-rule="nonzero">
            <path d="M2.92698413,12.8175 L0,10.1025 L2.82412698,7.4825 C3.53904762,8.195 3.97714286,9.15125 3.97714286,10.20375 C3.97265981,11.1734757 3.5977838,12.106062 2.92698413,12.81625 L2.92698413,12.8175 Z M4.80253968,14.56 C5.93396825,13.41125 6.6247619,11.88375 6.6247619,10.20375 C6.6247619,8.47125 5.89079365,6.90125 4.69714286,5.74125 L6.57142857,4.00375 C8.24507937,5.6075 9.27619048,7.795 9.27619048,10.20375 C9.27619048,12.56 8.28825397,14.705 6.67809524,16.3 L4.80253968,14.56 Z M9.02222222,18.47375 C11.231746,16.32375 12.5879365,13.41125 12.5879365,10.20375 C12.5879365,6.94625 11.1860317,3.99125 8.91428571,1.82875 L10.8863492,0 C13.5771429,2.55125 15.2380952,6.04375 15.2380952,9.8975 C15.2380952,13.85375 13.4857143,17.4325 10.664127,20 L9.02222222,18.475 L9.02222222,18.47375 Z" id="Shape"></path>
        </g>
    </g>
</svg>