<?xml version="1.0" encoding="UTF-8"?>
<svg width="18px" height="17px" viewBox="0 0 18 17" version="1.1" xmlns="http://www.w3.org/2000/svg" xmlns:xlink="http://www.w3.org/1999/xlink">
    <!-- Generator: Sketch 52.3 (67297) - http://www.bohemiancoding.com/sketch -->
    <title>Group 35 Copy</title>
    <desc>Created with Sketch.</desc>
    <g id="第二版" stroke="none" stroke-width="1" fill="none" fill-rule="evenodd">
        <g id="Group-35-Copy">
            <path d="M2.81831429,0.3046 C2.51008571,0.3046 2.20185714,0.4438 1.92097143,0.719714286 C1.81657143,0.821628571 1.69228571,0.9658 1.54562857,1.14974286 C1.48845714,1.22182857 1.4288,1.29888571 1.36665714,1.3834 C1.23242857,1.56485714 1.08825714,1.7662 0.9416,1.98494286 C0.839685714,2.13657143 0.777542857,2.23102857 0.760142857,2.25837143 L0.7502,2.2708 C0.258028571,2.99165714 0.0865142857,4.27428571 0.377342857,5.0722 L0.389771429,5.10451429 L0.397228571,5.13931429 C0.404685714,5.17411429 0.451914286,5.33568571 0.5414,5.58922857 C0.688057143,6.01925714 0.867028571,6.46917143 1.07085714,6.92902857 C1.72708571,8.40305714 2.55731429,9.77268571 3.53917143,11.0006286 C3.85485714,11.3958571 4.18794286,11.7786571 4.53097143,12.1366 C4.95354286,12.5790571 5.4134,13.0066 5.89562857,13.4092857 C7.02911429,14.3513714 8.29185714,15.1617143 9.65154286,15.8129714 C10.0766,16.0168 10.4917143,16.1957714 10.8869429,16.3474 C11.1628571,16.4518 11.312,16.4990286 11.3517714,16.5114571 L11.3741429,16.5189143 L11.3940286,16.5263714 C12.182,16.8321143 13.4795429,16.7252286 14.2277429,16.2927143 L14.2426571,16.2852571 C14.2948571,16.2579143 14.4067143,16.1957714 14.5558571,16.1112571 C14.8143714,15.9646 15.0554857,15.8204286 15.2717429,15.6886857 C15.3562571,15.6364857 15.4382857,15.5842857 15.5128571,15.5370571 C15.8434571,15.3232857 16.0721429,15.1567429 16.1889714,15.0374286 C16.7606857,14.4607429 16.7631714,13.7771714 16.1964286,13.2054571 C15.4333143,12.4373714 14.6776571,11.6817143 13.9468571,10.9583714 C13.3850857,10.4015714 12.7139429,10.4015714 12.1521714,10.9583714 C11.9930857,11.1174571 11.7420286,11.3635429 11.4263429,11.6817143 L10.2754571,12.8276286 L9.9026,12.676 C9.76837143,12.6213143 9.54217143,12.5243714 9.22648571,12.3727429 C8.64234286,12.0918571 8.10045714,11.7836286 7.61325714,11.4555143 C7.15588571,11.1497714 6.75817143,10.8316 6.42757143,10.5084571 C6.06465714,10.1554857 5.70422857,9.69562857 5.35622857,9.1438 C5.06788571,8.68642857 4.79197143,8.17685714 4.53842857,7.62751429 C4.39425714,7.3168 4.30725714,7.10302857 4.26748571,7.00111429 L4.12082857,6.63074286 L5.18968571,5.56188571 C5.55757143,5.194 5.82602857,4.92554286 5.94782857,4.80125714 C6.52948571,4.21711429 6.527,3.54597143 5.94285714,2.95685714 C5.4482,2.45722857 4.04128571,1.05031429 3.71317143,0.727171429 C3.43725714,0.4438 3.12654286,0.3046 2.81831429,0.3046 Z" id="Path" fill="#FFFFFF"></path>
            <polygon id="Path" fill="#47DB73" fill-rule="nonzero" points="15.4277043 0.850781141 17.262557 2.69640537 12.6627167 7.29725349 14.5000103 9.13649543 8.97585742 9.13454715 8.97585742 3.61823215 10.8180554 5.45651115 15.4277043 0.850803535"></polygon>
        </g>
    </g>
</svg>