<?xml version="1.0" encoding="UTF-8"?>
<svg width="246px" height="246px" viewBox="0 0 246 246" version="1.1" xmlns="http://www.w3.org/2000/svg" xmlns:xlink="http://www.w3.org/1999/xlink">
    <!-- Generator: Sketch 52.3 (67297) - http://www.bohemiancoding.com/sketch -->
    <title>Group 37 Copy 2</title>
    <desc>Created with Sketch.</desc>
    <defs>
        <radialGradient cx="23.0206367%" cy="76.3891048%" fx="23.0206367%" fy="76.3891048%" r="67.2402953%" gradientTransform="translate(0.230206,0.763891),rotate(-45.253634),scale(1.000000,1.295448),translate(-0.230206,-0.763891)" id="radialGradient-1">
            <stop stop-color="#FF5F4A" offset="0%"></stop>
            <stop stop-color="#FFAD51" offset="100%"></stop>
        </radialGradient>
    </defs>
    <g id="第二版" stroke="none" stroke-width="1" fill="none" fill-rule="evenodd">
        <g id="Group-37-Copy-2">
            <path d="M123,246 C190.85669,246 246,191.006411 246,123 C246,54.9935891 190.85669,0 123,0 C55.1433099,0 0,54.9935891 0,123 C0,191.006411 55.1433099,246 123,246 Z M124,163 C102.387096,163 85,145.463412 85,124 C85,102.536588 102.387096,85 124,85 C145.612904,85 163,102.536588 163,124 C163,145.463412 145.612904,163 124,163 Z" id="Oval" fill-opacity="0.1" fill="#000000" fill-rule="nonzero"></path>
            <path d="M123,214 C173.202917,214 214,173.313686 214,123 C214,72.6863139 173.202917,32 123,32 C72.7970829,32 32,72.6863139 32,123 C32,173.313686 72.7970829,214 123,214 Z M123,152 C106.928866,152 94,139.184801 94,123.5 C94,107.815199 106.928866,95 123,95 C139.071134,95 152,107.815199 152,123.5 C152,139.184801 139.071134,152 123,152 Z" id="Oval" fill-opacity="0.1" fill="#000000" fill-rule="nonzero"></path>
            <g id="编组-3" transform="translate(65.000000, 64.000000)">
                <circle id="Oval" stroke-opacity="0.15" stroke="#FFFFFF" stroke-width="12" fill="url(#radialGradient-1)" cx="57" cy="57" r="57"></circle>
                <g id="电话" transform="translate(57.500000, 57.500000) rotate(-225.000000) translate(-57.500000, -57.500000) translate(17.000000, 17.000000)">
                    <g id="Group">
                        <g>
                            <rect id="Rectangle" fill="#000000" opacity="0" x="0" y="0" width="80.7845745" height="80.7845745"></rect>
                            <path d="M5.2387398,46.6699219 C3.6393917,45.0582939 3.6393917,42.4583285 5.2387398,40.8467004 C24.6203056,21.3910821 56.1262897,21.3910821 75.581908,40.8467004 C77.1807694,42.4556599 77.1807694,45.0542303 75.581908,46.6665559 L68.5199898,53.7318401 C66.932268,55.3377041 64.3434689,55.3527728 62.7371607,53.7655003 C60.3724377,51.4114359 57.6589783,49.4359466 54.6923635,47.9086187 C53.3096958,47.2120255 52.4420669,45.7912016 52.4539575,44.2430186 L52.4135652,36.2992022 C44.5707295,33.9497175 36.212892,33.9429854 28.3666903,36.285738 L28.3666903,44.1857962 C28.3565922,45.7341673 27.4915241,47.1512633 26.1114542,47.8648604 C23.1445115,49.3713079 20.4385954,51.344206 18.0969513,53.708278 C16.4812598,55.3037733 13.8860553,55.3037733 12.2737298,53.7049119 L5.2387398,46.6699219 Z" id="Path" fill="#FFFFFF" transform="translate(40.410141, 40.600576) rotate(-135.000000) translate(-40.410141, -40.600576) "></path>
                        </g>
                    </g>
                </g>
            </g>
        </g>
    </g>
</svg>