<?xml version="1.0" encoding="UTF-8"?>
<svg width="24px" height="22px" viewBox="0 0 24 22" version="1.1" xmlns="http://www.w3.org/2000/svg" xmlns:xlink="http://www.w3.org/1999/xlink">
    <!-- Generator: Sketch 52.3 (67297) - http://www.bohemiancoding.com/sketch -->
    <title>Group 39 Copy</title>
    <desc>Created with Sketch.</desc>
    <g id="第二版" stroke="none" stroke-width="1" fill="none" fill-rule="evenodd">
        <g id="Group-39-Copy" fill-rule="nonzero">
            <path d="M18.6748064,10.4234789 L20.9963604,10.4234789 L20.9963604,11.7238292 L18.6748064,11.7238292 L18.6748064,10.4234789 Z M12.1730306,16.6111396 L13.473381,16.6111396 L13.473381,18.9326936 L12.1730306,18.9326936 L12.1730306,16.6111396 Z M18.8395364,5.97621898 L17.1979825,7.61777286 L16.2785048,6.69829512 L17.9200586,5.05674125 L18.8395364,5.97621898 Z M17.9201393,17.0908501 L16.2785854,15.4492962 L17.1980632,14.5298184 L18.8396171,16.1713723 L17.9201393,17.0908501 Z M13.3604655,0.280275969 L13.3604655,2.15091167 C18.1946999,2.15091167 22.1281051,6.08431681 22.1281051,10.9192947 C22.1281051,15.7540088 18.1947,19.6874379 13.3604655,19.6874379 C8.92419333,19.6874379 5.24894916,16.3737486 4.67381909,12.0919796 L6.00820238,13.4081832 L7.33114542,12.0852402 L3.67607159,8.43019032 L0.0115241484,12.085504 L1.3344672,13.4084471 L2.77550618,11.9674081 C3.30377201,17.3431234 7.84919421,21.5583614 13.3609692,21.5583614 C19.2265764,21.5583614 23.9995083,16.7856933 23.9995083,10.9195825 C23.9989806,5.05320793 19.2265523,0.280275969 13.3604655,0.280275969 Z" id="形状" fill="#FFFFFF"></path>
            <path d="M9.11440838,14.5848735 L12.1978298,11.5002049 L12.1978298,5.26570386 L14.169557,5.26570386 L14.169557,12.28018 C14.0324659,12.4172711 10.5097104,15.9796958 10.5097104,15.9796958 L9.11440838,14.5848735 Z" id="路径" fill="#47DB73"></path>
        </g>
    </g>
</svg>