<?xml version="1.0" encoding="UTF-8"?>
<svg width="26px" height="28px" viewBox="0 0 26 28" version="1.1" xmlns="http://www.w3.org/2000/svg" xmlns:xlink="http://www.w3.org/1999/xlink">
    <!-- Generator: Sketch 52.3 (67297) - http://www.bohemiancoding.com/sketch -->
    <title>办会家_排队 copy 3</title>
    <desc>Created with Sketch.</desc>
    <g id="第二版" stroke="none" stroke-width="1" fill="none" fill-rule="evenodd">
        <g id="办会家_排队-copy-3" transform="translate(-3.000000, -2.000000)">
            <g id="Group">
                <rect id="Rectangle" fill="#000000" opacity="0" x="0" y="0" width="32" height="32"></rect>
                <path d="M12.9868909,13.6716906 L15.0134529,19.8631408 C15.0643624,20.0183636 15.0816627,20.1770719 15.067848,20.3310795 C15.0284188,20.7915993 14.7180372,21.2056865 14.2476681,21.3577115 C14.1248074,21.3974925 14.0005077,21.4167434 13.8781906,21.4167434 C13.3753955,21.4167434 12.9073928,21.0978876 12.7433121,20.5967874 L12.3998649,19.5475148 L12.3998649,28.7137801 C12.3998649,29.3767546 11.8593034,29.9138304 11.1920758,29.9138304 C10.5248801,29.9138304 9.98399884,29.3767546 9.98399884,28.7137801 L9.98399884,21.5413949 L9.02954197,21.5413949 L9.02954194,28.7135242 C9.02954194,29.3765627 8.48894847,29.9138944 7.82175281,29.9138944 C7.15455716,29.9138944 6.61373984,29.3765627 6.61373984,28.7135242 L6.61373984,19.5475468 L6.27032469,20.5968194 C6.10621194,21.0979196 5.63817728,21.4167754 5.135638,21.4167754 C5.01335291,21.4167754 4.88873341,21.3975245 4.76625644,21.3577435 C4.29553559,21.2057186 3.98550578,20.7915993 3.94598059,20.3311115 C3.93197409,20.177072 3.94917841,20.0183955 4.00040769,19.8631728 L6.02696969,13.6716906 C6.29779409,12.8454028 7.0670645,12.2896516 7.94199131,12.2896516 L11.0718373,12.2896516 C11.9466682,12.2896516 12.7160025,12.8454028 12.9868909,13.6716906 Z M8.45393222,11.2150842 C7.45032469,10.8721487 6.72406509,9.93147447 6.72403309,8.81168969 C6.72403309,7.40262903 7.86620269,6.2603635 9.27471972,6.2603635 C10.6833647,6.2603635 11.8257901,7.40262903 11.8257901,8.81168969 C11.8257901,9.93147447 11.0991787,10.8721487 10.0955712,11.2150842 C9.83673866,11.3036322 9.56370778,11.3621205 9.27471972,11.3621205 C8.98585956,11.3621205 8.71282869,11.3036322 8.45393222,11.2150842 Z" id="Shape" fill="#FFFFFF" fill-rule="nonzero"></path>
                <path d="M14.5858068,22.3368556 C14.7912036,22.3368556 14.9944258,22.299441 15.1903569,22.2258589 C15.315616,22.1795223 15.4245022,22.1013993 15.5361385,22.0293201 L15.5361385,26.8236696 C15.5361385,27.505959 15.0524984,28.0586402 14.4558469,28.0586402 C14.3453938,28.0586402 14.2452377,28.022185 14.1447938,27.9871367 L14.1447938,22.2796464 C14.2873852,22.317061 14.4348372,22.3368556 14.5858068,22.3368556 Z M19.5062148,11.3528148 L21.5072261,17.5443289 C21.5576879,17.6995517 21.5747643,17.8581962 21.5608857,18.0122677 C21.5219681,18.4723398 21.2157437,18.8868747 20.7510668,19.0388996 C20.6301568,19.0786807 20.5070402,19.0976118 20.3863221,19.0976118 C19.8901785,19.0976118 19.42774,18.7790118 19.2659617,18.2779755 L18.9268636,17.228639 L18.9268636,26.3947763 C18.9268636,27.0577508 18.3929216,27.5948907 17.7341682,27.5948907 C17.075223,27.5948907 16.541281,27.0577508 16.541281,26.3947763 L16.541281,20.6856551 C16.6218983,20.4869738 16.6752382,20.2747657 16.6940414,20.0529001 C16.7192084,19.7678454 16.6862387,19.4786015 16.5955482,19.1984714 L14.5949526,13.0080446 C14.3017754,12.101779 13.6100524,11.4178907 12.7533852,11.1181899 C12.7909277,11.0388836 12.8247288,10.9574668 12.8718649,10.8851319 C12.9492524,10.7987584 13.0232183,10.7098267 13.0921955,10.616546 C13.4592746,10.2232766 13.9620697,9.97071184 14.5253038,9.97071184 L17.6153048,9.97071184 C18.4791671,9.97071184 19.2387801,10.5261113 19.5062148,11.3528148 Z M14.9471298,8.8960165 C13.9434903,8.553113 13.2171668,7.61243878 13.2171668,6.49233419 C13.2171668,5.08356134 14.3592725,3.94135975 15.7679494,3.94135975 C17.1767862,3.94135975 18.3189558,5.08352934 18.3189558,6.49233419 C18.3189558,7.61240678 17.5923444,8.553081 16.5887688,8.8960165 C16.3298724,8.98462844 16.0568735,9.04311678 15.7679493,9.04311678 C15.4789613,9.04311678 15.2059623,8.98462841 14.9471298,8.8960165 Z" id="Combined-Shape" fill-opacity="0.6" fill="#FFFFFF" fill-rule="nonzero"></path>
                <path d="M20.1510256,20.4819852 C20.3563904,20.4819852 20.5599643,20.4446345 20.7555757,20.3710524 C20.8809307,20.3243321 20.989721,20.2465928 21.101709,20.1741939 L21.101709,24.9685753 C21.101709,25.6508648 20.617973,26.2034821 20.0213215,26.2034821 C19.9109324,26.2034821 19.8104565,26.1670908 19.7102684,26.1320425 L19.7102684,20.42484 C19.8526039,20.4621906 20.0004397,20.4819852 20.1510256,20.4819852 Z M25.9991246,9.49724087 L28.0001679,15.6890428 C28.0508215,15.8442336 28.0677701,16.003006 28.0540194,16.1569496 C28.0150058,16.6171176 27.7085256,17.0315246 27.2442004,17.1836135 C27.1228427,17.2233306 26.9998221,17.2425815 26.8793278,17.2425815 C26.3828644,17.2425815 25.9208417,16.9237257 25.7588395,16.4226255 L25.4197414,15.3733848 L25.4197413,24.5393623 C25.4197413,25.2023368 24.8856715,25.7397325 24.2272379,25.7397325 C23.5681647,25.7397325 23.0344146,25.2023368 23.0344146,24.5393623 L23.0344146,18.8306568 C23.1147442,18.6315918 23.1681479,18.4197034 23.1869512,18.1979018 C23.2121181,17.9125273 23.1794683,17.6232195 23.0888417,17.3434731 L21.0878944,11.1527904 C20.7950369,10.2465888 20.1030581,9.56292434 19.2464549,9.26299969 C19.2843492,9.18388534 19.3180863,9.10230866 19.3648706,9.02987775 C19.4423221,8.94356828 19.5165438,8.85466853 19.5852972,8.76135581 C19.9524082,8.36811844 20.4551394,8.11552169 21.0183096,8.11552169 L24.1083425,8.11552169 C24.9724607,8.11552169 25.7319457,8.67098506 25.9991246,9.49724087 Z M21.4401676,7.04092225 C20.4368478,6.69801875 19.7102684,5.75734453 19.7103004,4.63723994 C19.7103004,3.22843509 20.8524061,2.08616956 22.2610191,2.08616956 C23.6699198,2.08616956 24.8120255,3.22840313 24.8120255,4.63723994 C24.8120255,5.75731253 24.085638,6.69798675 23.0821263,7.04092225 C22.823038,7.12943825 22.5499112,7.18795856 22.2609871,7.18795856 C21.9721269,7.18795856 21.6993518,7.12943825 21.4401676,7.04092225 Z" id="Combined-Shape" fill-opacity="0.3" fill="#FFFFFF" fill-rule="nonzero"></path>
            </g>
        </g>
    </g>
</svg>