<?xml version="1.0" encoding="UTF-8"?>
<svg width="32px" height="32px" viewBox="0 0 32 32" version="1.1" xmlns="http://www.w3.org/2000/svg" xmlns:xlink="http://www.w3.org/1999/xlink">
    <!-- Generator: Sketch 52.3 (67297) - http://www.bohemiancoding.com/sketch -->
    <title>nanrentouxiang-copy复制 copy</title>
    <desc>Created with Sketch.</desc>
    <g id="第二版" stroke="none" stroke-width="1" fill="none" fill-rule="evenodd">
        <g id="nanrentouxiang-copy复制-copy" fill="#347BFE" fill-rule="nonzero">
            <path d="M15.713707,3.43847547e-05 L16.2868431,3.43847547e-05 C18.701242,0.0525055204 21.1068731,0.635636575 23.2568984,1.74131275 C26.6868783,3.47691762 29.4462454,6.49503946 30.8606733,10.0706413 C31.5837552,11.8606429 31.9537544,13.7843668 32,15.7118729 L32,16.2862703 C31.9456399,18.9337932 31.2418815,21.5687657 29.9287813,23.8713065 C28.7593348,25.9425409 27.1187332,27.7456775 25.1693692,29.1087579 C22.5862512,30.9331442 19.4480828,31.9399986 16.2887342,32 L15.716217,32 C12.7955921,31.9438153 9.89246822,31.0850217 7.42938251,29.5093403 C5.65124752,28.3800074 4.09811719,26.8962365 2.89126158,25.1693653 C1.06629647,22.5856605 0.0593800467,19.4468482 0,16.2862359 L0,15.7150363 C0.0312888492,14.633739 0.148742375,13.5537826 0.38808488,12.4981362 C0.944957628,9.98811792 2.12750421,7.62120895 3.7918303,5.66186247 C5.16245381,4.04502254 6.85435535,2.69937516 8.74561156,1.74000612 C10.895018,0.635052034 13.2999958,0.0525055204 15.713707,0 L15.713707,3.43847547e-05 Z M8.08995544,3.58818669 C5.27619393,5.37193022 3.1043352,8.14193167 2.04996975,11.301925 C0.796249636,14.9894493 1.0893677,19.1744521 2.86433942,22.6425329 C3.6518213,24.1994402 4.71932119,25.6150261 6.00054798,26.7987901 C7.32557917,25.857473 8.89744843,25.3837543 10.3711876,24.7368739 C11.0549349,24.4518587 11.7393011,24.1206303 12.2818016,23.6068877 C12.591183,23.294399 12.9049311,22.905645 12.8974012,22.4431013 C12.9568156,21.646269 12.9336412,20.8468922 12.9342945,20.0487877 C12.6098876,19.8081975 12.3917596,19.459433 12.1961527,19.1124908 C11.8255002,18.4337701 11.5573788,17.6930881 11.4555353,16.9237636 C11.2236884,16.875006 11.005526,16.760608 10.8580215,16.5718013 C10.5161478,16.1474934 10.4011699,15.593108 10.3361166,15.0649926 C10.2767365,14.5956407 10.4348312,14.0806258 10.8279704,13.7937194 C10.4504756,12.2293162 10.1666754,10.6037426 10.3910956,8.99309189 C10.5129846,8.16682623 10.7798337,7.33997604 11.289842,6.66809793 C11.9398592,5.75432308 12.987348,5.21121588 14.0579768,4.95436176 C15.0798156,4.74437406 16.146112,4.64311096 17.1773375,4.84749394 C17.7891892,4.975027 18.4336364,5.22376631 18.8010912,5.7581054 C18.8804824,5.91249295 19.0761237,5.87625142 19.2186427,5.92187999 C20.0017922,6.07874324 20.7199573,6.54747621 21.1448323,7.22812243 C21.6736483,8.04627328 21.8104596,9.04625072 21.8148607,10.0012873 C21.8123507,11.2918847 21.5354616,12.5625045 21.172339,13.7944071 C21.4267414,13.9856551 21.5992427,14.2775129 21.6498206,14.5912738 C21.7161461,15.0444305 21.6123771,15.5031231 21.480517,15.9356489 C21.3373447,16.3787653 21.0404445,16.8437847 20.544224,16.9244513 C20.442965,17.6812598 20.1916915,18.4143771 19.8360989,19.0887997 C19.6423831,19.4450945 19.4242207,19.8032461 19.0973382,20.0532233 C19.1005358,20.85009 19.0760893,21.6481945 19.1354693,22.4438578 C19.121716,22.8657587 19.3991552,23.2213314 19.664801,23.5212697 C20.357935,24.2357161 21.3110071,24.5907043 22.2067277,24.9743694 C23.5048712,25.5043416 24.8492258,25.9768569 26.0017557,26.79628 C27.4561027,25.4531427 28.6329416,23.8106174 29.4404346,22.0031827 C30.5598534,19.5144142 30.9511015,16.7100968 30.582959,14.0081771 C30.0929618,10.2707262 28.0816734,6.76757303 25.1148372,4.44505477 C23.2198676,2.94381639 20.9486409,1.92135132 18.5666999,1.50691187 C14.977422,0.862472801 11.1561939,1.6099286 8.08988667,3.58808353 L8.08995544,3.58818669 Z" id="Shape"></path>
        </g>
    </g>
</svg>