<?xml version="1.0" encoding="UTF-8"?>
<svg width="23px" height="22px" viewBox="0 0 23 22" version="1.1" xmlns="http://www.w3.org/2000/svg" xmlns:xlink="http://www.w3.org/1999/xlink">
    <!-- Generator: Sketch 52.3 (67297) - http://www.bohemiancoding.com/sketch -->
    <title>收藏 copy 3</title>
    <desc>Created with Sketch.</desc>
    <defs>
        <linearGradient x1="100%" y1="100%" x2="0%" y2="0%" id="linearGradient-1">
            <stop stop-color="#FFB704" offset="0%"></stop>
            <stop stop-color="#F7851C" offset="100%"></stop>
        </linearGradient>
    </defs>
    <g id="page-2" stroke="none" stroke-width="1" fill="none" fill-rule="evenodd">
        <g id="收藏-copy-3" fill="url(#linearGradient-1)" fill-rule="nonzero">
            <g id="Group">
                <path d="M11.7387412,0.77265625 C11.4636913,0.77265625 11.2282883,0.928765659 11.1143036,1.15425703 L8.09123252,7.1632303 L1.33392526,8.12714395 C1.08117669,8.16431286 0.858163252,8.33528983 0.771435803,8.59051632 C0.684708353,8.84822074 0.764002021,9.11583687 0.947368628,9.2917697 L5.83631884,13.9676182 L4.68408273,20.5737719 C4.64195797,20.8215646 4.73859713,21.0842249 4.96161057,21.2403343 C5.08550692,21.3295397 5.2292267,21.3716644 5.37046854,21.3716644 C5.48445319,21.3716644 5.59595991,21.3444072 5.69507699,21.2923707 L11.7387412,18.1751384 L17.7799276,21.2923707 C17.8815226,21.3444072 17.9930293,21.3716644 18.1070139,21.3716644 C18.2482558,21.3716644 18.3919756,21.3295397 18.513394,21.2403343 C18.7339295,21.0842249 18.8355245,20.8215646 18.7909218,20.5737719 C18.7909218,20.5737719 18.6794151,19.9344667 18.5257836,19.0548026 C18.4142769,18.4179753 18.2804688,17.6547737 18.1516166,16.9138735 C17.8840005,15.3899483 17.6362078,13.9676182 17.6362078,13.9676182 L22.525158,9.2917697 C22.7085246,9.11583687 22.7878183,8.84574281 22.7010908,8.59051632 C22.6193192,8.33528983 22.3938279,8.16183493 22.1410793,8.12714395 L15.383772,7.1632303 L12.3631789,1.15425703 C12.2491942,0.928765659 12.0137912,0.77265625 11.7387412,0.77265625 Z" id="Shape"></path>
            </g>
        </g>
    </g>
</svg>