<?xml version="1.0" encoding="UTF-8"?>
<svg width="24px" height="23px" viewBox="0 0 24 23" version="1.1" xmlns="http://www.w3.org/2000/svg" xmlns:xlink="http://www.w3.org/1999/xlink">
    <!-- Generator: Sketch 52.3 (67297) - http://www.bohemiancoding.com/sketch -->
    <title>Group 35 Copy 11</title>
    <desc>Created with Sketch.</desc>
    <g id="第二版" stroke="none" stroke-width="1" fill="none" fill-rule="evenodd">
        <g id="Group-35-Copy-11" transform="translate(0.000000, -1.000000)" fill="#0A2A5E" fill-rule="nonzero">
            <rect id="Rectangle" opacity="0" x="0" y="0" width="24" height="24"></rect>
            <path d="M12.8105348,3.70176976 L14.6510847,2.92321718 L14.2480042,6.91721034 L12.8105348,3.70176976 Z M17.9640744,1.125 L20.0070847,2.91033335 L15.1774819,6.86751549 L17.9640744,1.125 Z M6.99071623,3.76618902 L8.61132036,1.55752922 L12.6807761,6.34295879 L6.99071623,3.76618902 Z M0.508299708,15.1996846 C0.681311402,14.4229726 0.975799358,13.8082289 1.86202413,13.8459602 C2.02859184,13.7574433 2.14799498,13.6003694 2.18872172,13.4161918 C2.41971073,12.5354887 2.67186605,11.6547856 2.81542894,10.7547567 C2.98813911,9.46977798 3.95395122,8.43421482 5.22378839,8.17246533 C5.68392586,8.02982271 6.16154854,7.91938972 6.62996848,7.79515261 C7.82170259,7.47943703 9.05725582,7.36191335 10.287141,7.44728869 C11.137475,7.55956224 11.9960915,7.63134368 12.8363025,7.7988337 C13.4711413,7.92996359 13.9910129,8.38384751 14.2065919,8.99519111 C14.6360535,10.043691 15.0848409,11.0836017 15.5529541,12.1149231 C15.6290287,12.3028215 15.7859845,12.4462466 15.9799616,12.5051196 C16.3080806,12.4317975 16.6518926,12.4923685 16.9351994,12.6734084 C17.2185061,12.8544484 17.4179082,13.1410044 17.4892125,13.4695677 C17.5476351,13.6582227 17.5636616,13.8574542 17.5361465,14.0530221 L16.5864228,14.4367767 C16.6783642,14.8089929 16.7499451,15.1859447 16.8008469,15.565954 C16.9545328,17.3080344 17.1045376,19.0510351 17.21313,20.7967966 C17.2306348,21.1117942 17.1554487,21.4250166 16.9968654,21.6977458 C16.1178157,21.9735679 15.194277,22.0794454 14.2756125,22.009719 C13.6093335,21.6250441 13.9369513,20.8409699 13.6857163,20.2538345 L5.43729219,21.0379087 C5.4234771,21.6626156 5.32154807,22.2822449 5.13452173,22.8784585 C4.22831968,23.145845 3.27909033,23.2361437 2.33872652,23.144418 C2.11581881,22.8671067 1.98032764,22.5298202 1.94945023,22.1753685 C1.84361862,21.4455905 1.81140899,20.7029286 1.75803306,19.9667087 C1.66232446,18.5936585 1.57121724,17.2242894 1.47642893,15.843877 L0.546030989,15.6690248 C0.502487471,15.5166222 0.489662021,15.3570861 0.508299708,15.1996846 Z M14.4854352,12.9284461 C14.0878764,11.910622 13.6986001,11.0087526 13.3857067,10.0755939 C13.2315429,9.37491146 12.5832124,8.89603543 11.8681733,8.95469901 C10.092963,9.03660348 8.31959323,9.138754 6.54990457,9.28967907 C5.9588954,9.36856269 5.38050238,9.52321323 4.82899045,9.74981654 C4.56782855,9.83980436 4.3553896,10.0335966 4.24185507,10.2854165 C3.91239666,11.4707306 3.64735748,12.6781313 3.33354373,13.9876825 C7.08240078,14.5022678 10.8995055,14.141284 14.4854352,12.9330475 L14.4854352,12.9284461 Z M16.9766194,14.6254331 C18.4388636,14.7834381 19.91515,14.7574678 21.3709321,14.54813 C21.1353417,13.4760097 20.9356421,12.4867141 20.6880881,11.5167444 C20.6077364,11.3159376 20.4478283,11.1573621 20.2463562,11.0786935 C19.8362135,10.8948593 19.4026616,10.7685099 18.9579713,10.7032213 C17.732885,10.5914721 16.5055792,10.5055606 15.2768716,10.4455444 C15.1357628,10.0860236 14.9964945,9.72527588 14.8590668,9.36330107 C15.2879149,9.29796154 15.7186036,9.25194781 16.1474517,9.18936911 C17.0730614,9.11946768 18.0037109,9.21577401 18.8953926,9.47373406 C19.2478579,9.57588458 19.603084,9.66607153 19.9518682,9.78294643 C20.9410639,10.0362018 21.6649107,10.8830215 21.7611287,11.8995788 C21.8688008,12.6357987 22.0583775,13.3582145 22.2313892,14.0787898 C22.2588774,14.2261124 22.3483827,14.3545038 22.4771026,14.4312551 C23.1424613,14.3999657 23.3642476,14.9042764 23.4940064,15.535585 C23.5076376,15.6635679 23.4979721,15.7929616 23.4654778,15.917499 L22.7660689,16.0601417 C22.6952077,17.1902393 22.6261871,18.3129747 22.5534854,19.43571 C22.5139136,20.0403307 22.4890661,20.6486324 22.4099225,21.2458908 C22.3883405,21.5327331 22.2869743,21.8078244 22.1172751,22.0400881 C21.4093994,22.1150147 20.6936782,22.0407151 20.0162874,21.8219829 C19.8755361,21.3314816 19.7991269,20.8247681 19.7889795,20.3145726 L17.4965747,20.0771417 C17.4045472,18.6341506 17.2904331,17.1930001 17.1735582,15.7518496 C17.1269103,15.3723896 17.0611807,14.9955198 16.9766194,14.6226722 L16.9766194,14.6254331 Z M19.4954118,17.6025224 C19.5599929,17.7830441 19.6986276,17.9273714 19.8764057,17.9991609 C20.095699,18.0752987 20.3240363,18.1223275 20.5555685,18.1390427 C20.5555685,18.1390427 20.5555685,18.1482454 20.5555685,18.1390427 C20.8914493,18.1489736 21.2276233,18.1391404 21.5623493,18.1095939 C21.9939582,18.0488557 22.1402819,17.6871877 22.0620586,17.005264 C22.0726211,16.8474205 21.9996975,16.6955852 21.8698946,16.6051565 C21.7400917,16.5147278 21.5723947,16.4989319 21.4279892,16.563532 C20.8632409,16.7232294 20.3098349,16.9206108 19.7714943,17.1543485 C19.6142553,17.2520137 19.5122789,17.418109 19.4963321,17.6025224 L19.4954118,17.6025224 Z" id="Shape"></path>
        </g>
    </g>
</svg>