<?xml version="1.0" encoding="UTF-8"?>
<svg width="22px" height="22px" viewBox="0 0 22 22" version="1.1" xmlns="http://www.w3.org/2000/svg" xmlns:xlink="http://www.w3.org/1999/xlink">
    <!-- Generator: Sketch 52.3 (67297) - http://www.bohemiancoding.com/sketch -->
    <title>jingqing-shixin copy 3</title>
    <desc>Created with Sketch.</desc>
    <g id="第二版" stroke="none" stroke-width="1" fill="none" fill-rule="evenodd">
        <g id="jingqing-shixin-copy-3" transform="translate(-1.000000, -1.000000)">
            <rect id="Rectangle" fill="#000000" opacity="0" x="0" y="0" width="24" height="24"></rect>
            <path d="M22.1853889,21.3072222 L22.1853889,21.3078333 C22.6333333,21.3078333 23,21.6885555 23,22.1536111 C23,22.6192778 22.6333333,23 22.1853889,23 L1.8146111,23 C1.36666667,23 1,22.6192778 1,22.1536111 C1,21.6885556 1.36666667,21.3072222 1.8146111,21.3072222 L5.48127777,21.3072222 L5.48127777,12.847 C5.48127777,9.1235 8.4146111,6.07772223 12,6.07772223 C15.5853889,6.07772223 18.5187222,9.1235 18.5187222,12.847 L18.5187222,21.3072222 L22.1853889,21.3072222 Z M9.40277777,12.8463889 C8.98233333,12.8463889 8.63888887,13.2271111 8.6388889,13.6921667 L8.6388889,18.7692778 C8.6388889,19.2343333 8.98294446,19.6156667 9.40277777,19.6156667 C9.8232222,19.6156667 10.1666667,19.2343333 10.1666667,18.7692778 L10.1666667,13.6921667 C10.1666667,13.2271111 9.8226111,12.8463889 9.40277777,12.8463889 Z M12,4.38433333 C12.4479444,4.38433333 12.8146111,4.0036111 12.8146111,3.53855557 L12.8146111,1.84577777 C12.8146111,1.38133333 12.4479444,1 12,1 C11.5520556,1 11.1853889,1.38072223 11.1853889,1.8463889 L11.1853889,3.53855557 C11.1853889,4.00361113 11.5520556,4.38433333 12,4.38433333 Z M18.1923889,6.11927777 L19.3333333,4.93433333 C19.6591593,4.60678487 19.6591593,4.07754846 19.3333333,3.75 C19.0076111,3.41144443 18.5187222,3.41144443 18.1923889,3.75 L17.0520556,4.93433333 C16.7258241,5.26195283 16.7258241,5.79165827 17.0520556,6.11927777 C17.3777778,6.45783333 17.9076111,6.45783333 18.1923889,6.11927777 Z M5.97016667,6.11927777 C6.2965,6.45783333 6.7853889,6.45783333 7.1111111,6.11927777 C7.43734253,5.79165827 7.43734253,5.26195283 7.1111111,4.93433333 L5.97016667,3.75 C5.64444443,3.41144443 5.15555557,3.41144443 4.82983333,3.75 C4.50400737,4.07754846 4.50400737,4.60678487 4.82983333,4.93433333 L5.97016667,6.11927777 Z M1.8146111,11.5765 L3.44444443,11.5765 C3.89238887,11.5765 4.25905554,11.1963889 4.25905557,10.7307222 C4.25905557,10.2656667 3.8923889,9.88433333 3.44444443,9.88433333 L1.8146111,9.88433333 C1.36666667,9.88433333 1,10.2656667 1,10.7307222 C1,11.1963889 1.36666667,11.5771111 1.8146111,11.5771111 L1.8146111,11.5765 Z M20.5555556,11.5765 L22.1853889,11.5765 C22.6333333,11.5765 23,11.1963889 23,10.7307222 C23,10.2656667 22.6333333,9.88433333 22.1853889,9.88433333 L20.5555556,9.88433333 C20.1076111,9.88433333 19.7409445,10.2656667 19.7409444,10.7307222 C19.7409444,11.1963889 20.1076111,11.5771111 20.5555556,11.5771111 L20.5555556,11.5765 Z" id="Shape" fill="#7A8BA8" fill-rule="nonzero"></path>
        </g>
    </g>
</svg>