<?xml version="1.0" encoding="UTF-8"?>
<svg width="18px" height="12px" viewBox="0 0 18 12" version="1.1" xmlns="http://www.w3.org/2000/svg" xmlns:xlink="http://www.w3.org/1999/xlink">
    <!-- Generator: Sketch 52.3 (67297) - http://www.bohemiancoding.com/sketch -->
    <title>cidai-5 copy 2</title>
    <desc>Created with Sketch.</desc>
    <g id="第二版" stroke="none" stroke-width="1" fill="none" fill-rule="evenodd">
        <g id="cidai-5-copy-2" fill="#0A2A5E" fill-rule="nonzero">
            <path d="M13.2593333,11.7142857 L4.74066667,11.7142857 L5.66666667,10.0873016 L12.3333333,10.0873016 L13.2593333,11.7142857 Z M14,11.7142857 L12.6666667,9.43650794 L5.33333333,9.43650794 L4,11.7142857 L1.33333334,11.7142857 C0.596953668,11.7142857 9.01805003e-17,11.1315452 0,10.4126984 L0,1.3015873 C9.01805003e-17,0.582740485 0.596953668,-4.40166728e-17 1.33333334,0 L16.6666667,0 C17.4030463,4.40166728e-17 18,0.582740485 18,1.3015873 L18,10.4126984 C18,11.1315452 17.4030463,11.7142857 16.6666667,11.7142857 L14,11.7142857 Z M1.5,1.95238096 C1.77614238,1.95238096 2,1.73385327 2,1.46428571 C2,1.19471816 1.77614238,0.976190472 1.5,0.976190472 C1.22385762,0.976190472 0.999999996,1.19471816 0.999999996,1.46428571 C0.999999996,1.73385327 1.22385762,1.95238096 1.5,1.95238096 Z M1.5,10.7380952 C1.77614238,10.7380952 2,10.5195676 2,10.25 C2,9.98043244 1.77614238,9.76190476 1.5,9.76190476 C1.22385762,9.76190476 0.999999996,9.98043244 0.999999996,10.25 C0.999999996,10.5195676 1.22385762,10.7380952 1.5,10.7380952 Z M16.5,1.95238096 C16.7761424,1.95238096 17,1.73385327 17,1.46428571 C17,1.19471816 16.7761424,0.976190472 16.5,0.976190472 C16.2238576,0.976190472 16,1.19471816 16,1.46428571 C16,1.73385327 16.2238576,1.95238096 16.5,1.95238096 Z M16.5,10.7380952 C16.7761424,10.7380952 17,10.5195676 17,10.25 C17,9.98043244 16.7761424,9.76190476 16.5,9.76190476 C16.2238576,9.76190476 16,9.98043244 16,10.25 C16,10.5195676 16.2238576,10.7380952 16.5,10.7380952 Z M5.33333333,3.25396825 C4.61880214,3.25396823 3.95854809,3.62608994 3.60128249,4.23015872 C3.24401689,4.83422749 3.24401689,5.57847092 3.60128249,6.1825397 C3.95854809,6.78660847 4.61880214,7.15873018 5.33333333,7.15873016 L12.6666667,7.15873016 C13.7712362,7.15873016 14.6666667,6.28461943 14.6666667,5.20634921 C14.6666667,4.12807898 13.7712362,3.25396825 12.6666667,3.25396825 L5.33333333,3.25396825 Z M5.66666667,6.50793651 C5.19031254,6.50793652 4.75014317,6.25985538 4.51196611,5.85714287 C4.27378904,5.45443035 4.27378904,4.95826806 4.51196611,4.55555555 C4.75014317,4.15284303 5.19031254,3.90476189 5.66666667,3.9047619 C6.40304632,3.90476192 6.99999997,4.4875024 6.99999997,5.20634921 C6.99999997,5.92519601 6.40304632,6.50793649 5.66666667,6.50793651 Z M12.3333333,6.50793651 C11.8569792,6.50793652 11.4168098,6.25985538 11.1786328,5.85714287 C10.9404557,5.45443035 10.9404557,4.95826806 11.1786328,4.55555555 C11.4168098,4.15284303 11.8569792,3.90476189 12.3333333,3.9047619 C13.069713,3.90476192 13.6666666,4.4875024 13.6666666,5.20634921 C13.6666666,5.92519601 13.069713,6.50793649 12.3333333,6.50793651 Z" id="Shape"></path>
        </g>
    </g>
</svg>