<?xml version="1.0" encoding="UTF-8"?>
<svg width="22px" height="19px" viewBox="0 0 22 19" version="1.1" xmlns="http://www.w3.org/2000/svg" xmlns:xlink="http://www.w3.org/1999/xlink">
    <!-- Generator: Sketch 52.3 (67297) - http://www.bohemiancoding.com/sketch -->
    <title>微信 copy</title>
    <desc>Created with Sketch.</desc>
    <g id="第二版" stroke="none" stroke-width="1" fill="none" fill-rule="evenodd">
        <g id="微信-copy" transform="translate(-2.000000, -3.000000)">
            <g id="Group">
                <rect id="Rectangle" fill="#000000" opacity="0" x="0" y="0" width="21.9428571" height="21.7904762"></rect>
                <path d="M16.9097143,8.7516 C17.1620571,8.7516 17.4102857,8.77066667 17.6598857,8.79790476 C16.9878857,5.6900381 13.6429714,3.38160952 9.82354286,3.38160952 C5.55428571,3.38160952 2.05714286,6.27020952 2.05714286,9.94054286 C2.05714286,12.0583048 3.22011429,13.7974571 5.1648,15.1484667 L4.38857143,17.4677905 L7.104,16.116781 C8.07497143,16.3060857 8.85394286,16.5022 9.82354286,16.5022 C10.0676571,16.5022 10.3090286,16.4913048 10.5476571,16.4736 C10.3968,15.9574381 10.3076571,15.4181238 10.3076571,14.8556571 C10.3090286,11.4863048 13.2219429,8.7516 16.9097143,8.7516 Z M12.7350857,6.66107619 C13.3220571,6.66107619 13.7074286,7.04377143 13.7074286,7.62394286 C13.7074286,8.20139048 13.3220571,8.58817143 12.7350857,8.58817143 C12.1549714,8.58817143 11.5707429,8.20139048 11.5707429,7.62394286 C11.5707429,7.04240952 12.1536,6.66107619 12.7350857,6.66107619 Z M7.30011429,8.58817143 C6.71725714,8.58817143 6.13028571,8.20139048 6.13028571,7.62394286 C6.13028571,7.04377143 6.71725714,6.66107619 7.30011429,6.66107619 C7.88297143,6.66107619 8.26971429,7.04240952 8.26971429,7.62394286 C8.26971429,8.20139048 7.88297143,8.58817143 7.30011429,8.58817143 Z M24,14.7630476 C24,11.6796952 20.8923429,9.16698095 17.4020571,9.16698095 C13.7060571,9.16698095 10.7972571,11.6810571 10.7972571,14.7630476 C10.7972571,17.8545714 13.7074286,20.3591143 17.4020571,20.3591143 C18.1755429,20.3591143 18.9558857,20.1670857 19.7321143,19.9736952 L21.8619429,21.1340381 L21.2777143,19.205581 C22.8370286,18.0425143 24,16.5022 24,14.7630476 Z M15.2598857,13.7974571 C14.8745143,13.7974571 14.4836571,13.4161238 14.4836571,13.026619 C14.4836571,12.6425619 14.8745143,12.255781 15.2598857,12.255781 C15.8496,12.255781 16.2322286,12.6425619 16.2322286,13.026619 C16.2322286,13.4161238 15.8496,13.7974571 15.2598857,13.7974571 Z M19.5318857,13.7974571 C19.1492571,13.7974571 18.7597714,13.4161238 18.7597714,13.026619 C18.7597714,12.6425619 19.1478857,12.255781 19.5318857,12.255781 C20.1161143,12.255781 20.5042286,12.6425619 20.5042286,13.026619 C20.5042286,13.4161238 20.1161143,13.7974571 19.5318857,13.7974571 Z" id="Shape" fill="#FFFFFF" fill-rule="nonzero"></path>
            </g>
        </g>
    </g>
</svg>