<?xml version="1.0" encoding="UTF-8"?>
<svg width="18px" height="18px" viewBox="0 0 18 18" version="1.1" xmlns="http://www.w3.org/2000/svg" xmlns:xlink="http://www.w3.org/1999/xlink">
    <!-- Generator: Sketch 52.3 (67297) - http://www.bohemiancoding.com/sketch -->
    <title>电话复制 copy 3</title>
    <desc>Created with Sketch.</desc>
    <g id="第二版" stroke="none" stroke-width="1" fill="none" fill-rule="evenodd">
        <g id="电话复制-copy-3" transform="translate(-4.000000, -3.000000)">
            <g id="Group">
                <g>
                    <rect id="Rectangle" fill="#000000" opacity="0" x="0" y="0" width="25.094372" height="25.606502"></rect>
                    <path d="M1.54595426,14.5878116 C1.0389657,14.0770085 1.03072452,13.2611317 1.52749624,12.7604676 C7.5478196,6.7166716 17.43449,6.81653696 23.6013893,12.9834362 C24.1082166,13.4934004 24.1164534,14.3088394 23.6198366,14.8097239 L21.4261809,17.0044465 C20.9330393,17.5033388 20.1207143,17.4998616 19.6116188,16.9966792 C18.8621001,16.2504714 18.0043468,15.6219561 17.0685731,15.1332728 C16.6324799,14.9102971 16.3557118,14.4616882 16.3545358,13.9759015 L16.3166809,11.4829805 C13.8481287,10.7208457 11.2253934,10.6922411 8.77065811,11.4025334 L8.79569913,13.8815949 C8.79743824,14.3674463 8.53046912,14.8093932 8.09966105,15.0289476 C7.17340073,15.4922709 6.33052985,16.1027951 5.60320849,16.8372254 C5.10125703,17.3327753 4.28687424,17.3245492 3.7758538,16.8177111 L1.54595426,14.5878116 Z" id="Path" fill="#FFFFFF" transform="translate(12.573610, 12.834247) rotate(-135.000000) translate(-12.573610, -12.834247) "></path>
                </g>
            </g>
        </g>
    </g>
</svg>