<?xml version="1.0" encoding="UTF-8"?>
<svg width="18px" height="16px" viewBox="0 0 18 16" version="1.1" xmlns="http://www.w3.org/2000/svg" xmlns:xlink="http://www.w3.org/1999/xlink">
    <!-- Generator: Sketch 52.3 (67297) - http://www.bohemiancoding.com/sketch -->
    <title>邮件，短信 copy 2</title>
    <desc>Created with Sketch.</desc>
    <g id="第二版" stroke="none" stroke-width="1" fill="none" fill-rule="evenodd">
        <g id="邮件，短信-copy-2" transform="translate(-1.000000, -2.000000)">
            <g id="Group">
                <rect id="Rectangle" fill="#000000" opacity="0" x="0" y="0" width="20" height="20"></rect>
                <path d="M13.7154102,9.87988281 L18.7421484,13.9503125 L18.7421484,5.80945313 L13.7154102,9.87988281 Z M11.7158984,11.4990039 C11.2208984,11.8999414 10.6138867,12.1003906 10.0069531,12.1003906 C9.39992188,12.1003906 8.79298828,11.8999219 8.29771484,11.4989063 L7.24736328,10.6482031 L1.28605469,15.4762891 C1.34357422,15.9100391 1.55619141,16.2950977 1.86710938,16.5738086 C2.01539063,16.7067187 2.18626953,16.8144141 2.37234375,16.8927344 C2.58417969,16.9819141 2.8159375,17.0326562 3.05998047,17.0326562 L16.9510938,17.0326562 C17.2600195,17.0326562 17.549375,16.9518164 17.8028906,16.813125 C17.9810547,16.7156641 18.1420508,16.5904883 18.2774023,16.4409375 C18.5160937,16.1772266 18.6767969,15.8427344 18.7252734,15.4730859 L12.7667187,10.6480859 L11.7158984,11.4990039 Z M1.26892578,5.80609375 L1.26892578,13.9536914 L6.29878906,9.87992187 L1.26892578,5.80609375 Z" id="Shape" fill="#FFFFFF" fill-rule="nonzero"></path>
                <path d="M8.19595703,9.87994141 L9.04923828,10.5710156 C9.60408203,11.020332 10.4096289,11.020332 10.9644922,10.5710156 L11.8179883,9.87988281 L12.7666992,9.11166016 L18.6920898,4.31353516 C18.5047656,3.52488281 17.7961914,2.93574219 16.9510937,2.93574219 L3.05998047,2.93574219 C2.21585937,2.93574219 1.50802734,3.52349609 1.3196875,4.31074219 L7.24736328,9.11166016 L8.19595703,9.87994141 Z" id="Path" fill="#FFFFFF"></path>
            </g>
        </g>
    </g>
</svg>