<?xml version="1.0" encoding="UTF-8"?>
<svg width="18px" height="20px" viewBox="0 0 18 20" version="1.1" xmlns="http://www.w3.org/2000/svg" xmlns:xlink="http://www.w3.org/1999/xlink">
    <!-- Generator: Sketch 52.3 (67297) - http://www.bohemiancoding.com/sketch -->
    <title>qukuanji copy</title>
    <desc>Created with Sketch.</desc>
    <g id="第二版" stroke="none" stroke-width="1" fill="none" fill-rule="evenodd">
        <g id="qukuanji-copy" fill="#FFFFFF" fill-rule="nonzero">
            <path d="M17.2727273,10.9576838 C17.2727273,11.5515962 17.1289821,12.0267261 16.8414918,12.3830735 C16.5540015,12.739421 16.045066,12.9175946 15.3146853,12.9175946 L1.98135197,12.9175946 C1.32867133,12.9175946 0.835275839,12.7208612 0.5011655,12.3273942 C0.16705516,11.9339273 0,11.3882702 0,10.6904232 L0,2.20489977 C0,1.52190049 0.147630159,0.983667441 0.442890438,0.590200488 C0.738150737,0.196733516 1.27428129,0 2.05128204,0 L15.1981352,0 C15.990676,0 16.5345765,0.167037832 16.8298368,0.501113594 C17.1250971,0.835189277 17.2727273,1.3437268 17.2727273,2.02672607 L17.2727273,10.9576838 Z M10.7925408,2.16035633 C10.7925408,1.74461768 10.5982906,1.53674832 10.2097902,1.53674832 L2.47086243,1.53674832 C2.05128204,1.53674832 1.84149183,1.75946545 1.84149183,2.20489977 L1.84149183,5.74610248 C1.84149183,5.95397176 1.88422688,6.10987377 1.96969697,6.21380848 C2.05516706,6.31774313 2.21445221,6.37713439 2.44755242,6.39198217 L10.1165501,6.41425393 C10.5672105,6.41425393 10.7925408,6.20638455 10.7925408,5.79064584 L10.7925408,2.16035633 Z M15.5244755,8.79732736 C15.5244755,8.60430584 15.4156954,8.50779512 15.1981352,8.50779512 L12.8671328,8.50779512 C12.6495726,8.50779512 12.5407925,8.60430584 12.5407925,8.79732736 C12.5407925,8.99034896 12.6495726,9.08685969 12.8671328,9.08685969 L15.1981352,9.08685969 C15.4156954,9.08685969 15.5244755,8.99034896 15.5244755,8.79732736 Z M15.5011655,2.6280624 C15.5011655,2.33110615 15.3690753,2.18262809 15.1048951,2.18262809 L13.1934732,2.18262809 C13.022533,2.18262809 12.9098679,2.22717152 12.8554779,2.31625832 C12.8010878,2.4053452 12.7738928,2.5315516 12.7738928,2.69487752 L12.7738928,5.07795104 C12.7738928,5.24127688 12.8010878,5.37861912 12.8554779,5.48997775 C12.9098679,5.60133633 13.022533,5.65701561 13.1934732,5.65701561 L15.1282051,5.65701561 C15.3146853,5.65701561 15.4234654,5.60504824 15.4545455,5.50111359 C15.4856255,5.39717889 15.5011655,5.26354863 15.5011655,5.10022271 L15.5011655,2.6280624 Z M4.56876456,7.72828504 C4.47552449,7.72828504 4.39782437,7.73942096 4.33566429,7.76169264 C4.2735043,7.78396439 4.24242422,7.84706752 4.24242422,7.95100225 L4.24242422,8.30734969 C4.24242422,8.44097992 4.32012432,8.50779512 4.47552449,8.50779512 L4.68531466,8.50779512 L5.01165502,8.50779512 L5.33799535,8.50779512 L5.52447551,8.50779512 C5.63325563,8.50779512 5.6993007,8.48923535 5.72261071,8.45211584 C5.74592074,8.41499633 5.75757578,8.36674088 5.75757578,8.30734969 L5.75757578,7.95100225 C5.75757578,7.89161096 5.74980571,7.83593168 5.73426576,7.78396439 C5.71872572,7.73199703 5.66433563,7.71343729 5.57109556,7.72828504 L4.56876456,7.72828504 Z M7.06293702,7.72828504 C6.96969695,7.72828504 6.8958819,7.73199703 6.84149179,7.73942096 C6.78710178,7.74684488 6.75213671,7.80252416 6.73659674,7.90645881 C6.73659674,7.99554568 6.74048174,8.07720863 6.74825172,8.15144768 C6.75602178,8.22568672 6.75213671,8.29992576 6.73659674,8.3741648 C6.73659674,8.44840385 6.76379175,8.48923535 6.81818178,8.49665928 C6.87257187,8.50408313 6.93084689,8.50779512 6.99300696,8.50779512 L8.11188812,8.50779512 C8.22066824,8.50779512 8.27505825,8.45582775 8.27505825,8.35189313 L8.27505825,7.88418713 C8.27505825,7.83964367 8.26728827,7.79881217 8.25174824,7.76169264 C8.23620819,7.72457313 8.18181818,7.71343729 8.08857811,7.72828504 L7.06293702,7.72828504 Z M2.09790209,7.72828504 C2.004662,7.72828504 1.93084693,7.73942096 1.87645688,7.76169264 C1.82206681,7.78396439 1.79487179,7.84706752 1.79487179,7.95100225 C1.77933178,8.01039344 1.77544677,8.07349664 1.78321679,8.14031184 C1.79098679,8.20712695 1.79487179,8.27023016 1.79487179,8.32962137 C1.77933178,8.40386039 1.7987568,8.45582775 1.85314685,8.48552336 C1.9075369,8.51521904 1.95804195,8.5300668 2.004662,8.5300668 L3.05361308,8.5300668 C3.1934732,8.51521904 3.26340326,8.44097992 3.26340326,8.30734969 L3.26340326,7.97327393 C3.26340326,7.91388271 3.25563327,7.85820344 3.24009322,7.80623607 C3.2245532,7.75426871 3.17016317,7.72828504 3.0769231,7.72828504 C2.99922297,7.74313287 2.86324785,7.74684488 2.66899765,7.73942096 C2.4747475,7.73199703 2.28438229,7.72828504 2.09790209,7.72828504 Z M9.60372959,7.72828504 C9.49494947,7.72828504 9.41336438,7.73199703 9.35897435,7.73942096 C9.30458426,7.74684488 9.27738923,7.80252416 9.27738923,7.90645881 C9.26184928,7.99554568 9.25796421,8.07720863 9.26573427,8.15144768 C9.27350426,8.22568672 9.27738923,8.29992576 9.27738923,8.3741648 C9.26184928,8.44840385 9.28127422,8.48923535 9.33566433,8.49665928 C9.39005434,8.50408313 9.44832944,8.50779512 9.51048952,8.50779512 L10.6759906,8.50779512 C10.8003108,8.50779512 10.8624709,8.45582775 10.8624709,8.35189313 L10.8624709,7.88418713 C10.8624709,7.83964367 10.8547008,7.79881217 10.8391609,7.76169264 C10.8236208,7.72457313 10.7692308,7.71343729 10.6759906,7.72828504 L9.60372959,7.72828504 Z M4.56876456,9.17594656 C4.47552449,9.17594656 4.39782437,9.17965848 4.33566429,9.1870824 C4.2735043,9.19450633 4.24242422,9.25018561 4.24242422,9.35412023 L4.24242422,9.82182633 C4.24242422,9.91091312 4.32012432,9.95545656 4.47552449,9.95545656 L5.57109556,9.95545656 C5.6954157,9.95545656 5.75757578,9.89606535 5.75757578,9.77728287 L5.75757578,9.33184855 C5.75757578,9.28730512 5.74980571,9.24647367 5.73426576,9.20935416 C5.71872572,9.17223455 5.66433563,9.16109871 5.57109556,9.17594656 L4.56876456,9.17594656 Z M7.06293702,9.17594656 C6.96969695,9.17594656 6.8958819,9.17965848 6.84149179,9.1870824 C6.78710178,9.19450633 6.75213671,9.25018561 6.73659674,9.35412023 C6.73659674,9.44320713 6.74048174,9.52487008 6.74825172,9.59910912 C6.75602178,9.67334816 6.75213671,9.74758721 6.73659674,9.82182633 C6.73659674,9.88121752 6.76379175,9.91833703 6.81818178,9.93318488 C6.87257187,9.94803264 6.93084689,9.95545656 6.99300696,9.95545656 L8.11188812,9.95545656 C8.22066824,9.95545656 8.27505825,9.89606535 8.27505825,9.77728287 L8.27505825,9.33184855 C8.27505825,9.28730512 8.26728827,9.24647367 8.25174824,9.20935416 C8.23620819,9.17223455 8.18181818,9.16109871 8.08857811,9.17594656 L7.06293702,9.17594656 Z M2.09790209,9.17594656 C2.004662,9.17594656 1.93084693,9.17965848 1.87645688,9.1870824 C1.82206681,9.19450633 1.79487179,9.25018561 1.79487179,9.35412023 C1.77933178,9.45805496 1.77544677,9.54714176 1.78321679,9.62138088 C1.79098679,9.69561992 1.79487179,9.76243504 1.79487179,9.82182633 C1.77933178,9.89606535 1.7987568,9.94060881 1.85314685,9.95545656 C1.9075369,9.97030439 1.95804195,9.97772832 2.004662,9.97772832 L3.10023311,9.97772832 C3.2245532,9.97772832 3.28671327,9.91833703 3.28671327,9.79955455 L3.28671327,9.35412023 C3.28671327,9.3095768 3.27894328,9.26874535 3.26340326,9.23162584 C3.24786321,9.19450633 3.1934732,9.17594656 3.10023311,9.17594656 C3.02253299,9.19079432 2.88267289,9.19450633 2.68065268,9.1870824 C2.47863249,9.17965848 2.28438229,9.17594656 2.09790209,9.17594656 Z M9.60372959,9.17594656 C9.51048952,9.17594656 9.4327894,9.17965848 9.37062932,9.1870824 C9.30846933,9.19450633 9.27738923,9.25018561 9.27738923,9.35412023 C9.26184928,9.44320713 9.25796421,9.52487008 9.26573427,9.59910912 C9.27350426,9.67334816 9.27738923,9.74758721 9.27738923,9.82182633 C9.26184928,9.88121752 9.28127422,9.91833703 9.33566433,9.93318488 C9.39005434,9.94803264 9.44832944,9.95545656 9.51048952,9.95545656 L10.6759906,9.95545656 C10.8003108,9.95545656 10.8624709,9.89606535 10.8624709,9.77728287 L10.8624709,9.33184855 C10.8624709,9.28730512 10.8547008,9.24647367 10.8391609,9.20935416 C10.8236208,9.17223455 10.7692308,9.16109871 10.6759906,9.17594656 L9.60372959,9.17594656 Z M4.56876456,10.5790646 C4.47552449,10.5790646 4.39782437,10.5827766 4.33566429,10.5902005 C4.2735043,10.5976243 4.24242422,10.6533036 4.24242422,10.7572383 L4.24242422,11.2249443 C4.24242422,11.2991834 4.26573424,11.3400149 4.31235428,11.3474387 C4.35897438,11.3548626 4.41336441,11.3585746 4.47552449,11.3585746 L5.57109556,11.3585746 C5.6954157,11.3585746 5.75757578,11.3066073 5.75757578,11.2026726 L5.75757578,10.7572383 C5.75757578,10.697847 5.74980571,10.6533036 5.73426576,10.623608 C5.71872572,10.5939124 5.66433563,10.5790646 5.57109556,10.5790646 L4.56876456,10.5790646 Z M7.06293702,10.5790646 C6.96969695,10.5790646 6.8958819,10.5827766 6.84149179,10.5902005 C6.78710178,10.5976243 6.75213671,10.6533036 6.73659674,10.7572383 C6.73659674,10.861173 6.74048174,10.9465479 6.74825172,11.013363 C6.75602178,11.0801782 6.75213671,11.1507053 6.73659674,11.2249443 C6.73659674,11.2991834 6.76379175,11.3400149 6.81818178,11.3474387 C6.87257187,11.3548626 6.93084689,11.3585746 6.99300696,11.3585746 L8.11188812,11.3585746 C8.22066824,11.3585746 8.27505825,11.3066073 8.27505825,11.2026726 L8.27505825,10.7572383 C8.27505825,10.697847 8.26728827,10.6533036 8.25174824,10.623608 C8.23620819,10.5939124 8.18181818,10.5790646 8.08857811,10.5790646 L7.06293702,10.5790646 Z M2.09790209,10.6013363 C2.004662,10.6013363 1.93084693,10.6050482 1.87645688,10.6124722 C1.82206681,10.6198961 1.79487179,10.6681514 1.79487179,10.7572383 C1.77933178,10.861173 1.77544677,10.9502598 1.78321679,11.0244989 C1.79098679,11.0987379 1.79487179,11.172977 1.79487179,11.247216 C1.77933178,11.3066073 1.7987568,11.3437268 1.85314685,11.3585746 C1.9075369,11.3734224 1.95804195,11.3808463 2.004662,11.3808463 L3.10023311,11.3808463 C3.20901323,11.3808463 3.26340326,11.3214551 3.26340326,11.2026726 L3.26340326,10.7572383 C3.26340326,10.7126949 3.25563327,10.6718634 3.24009322,10.6347438 C3.2245532,10.5976243 3.17793315,10.5864885 3.10023311,10.6013363 L2.09790209,10.6013363 Z M9.60372959,10.5790646 C9.51048952,10.5790646 9.4327894,10.5827766 9.37062932,10.5902005 C9.30846933,10.5976243 9.27738923,10.6533036 9.27738923,10.7572383 C9.26184928,10.861173 9.25796421,10.9465479 9.26573427,11.013363 C9.27350426,11.0801782 9.27738923,11.1507053 9.27738923,11.2249443 C9.26184928,11.2991834 9.28127422,11.3400149 9.33566433,11.3474387 C9.39005434,11.3548626 9.44832944,11.3585746 9.51048952,11.3585746 L10.6759906,11.3585746 C10.8003108,11.3585746 10.8624709,11.3066073 10.8624709,11.2026726 L10.8624709,10.7572383 C10.8624709,10.697847 10.8547008,10.6533036 10.8391609,10.623608 C10.8236208,10.5939124 10.7692308,10.5790646 10.6759906,10.5790646 L9.60372959,10.5790646 Z M17.2727273,18.3518931 C17.2727273,18.9161099 17.1484071,19.3318486 16.8997669,19.5991091 C16.6511266,19.8663697 16.1693861,20 15.4545455,20 L2.02797203,20 C1.43745143,20 0.951825942,19.8886414 0.571095557,19.6659243 C0.190365192,19.4432071 0,18.9903489 0,18.3073497 L0,15.7238307 C0,15.0853749 0.128205139,14.6325167 0.384615377,14.3652562 C0.641025635,14.0979955 1.13442113,13.9643653 1.86480186,13.9643653 L15.2680652,13.9643653 C15.8896658,13.9643653 16.3791763,14.0794358 16.7365967,14.3095768 C17.0940171,14.5397179 17.2727273,14.9814402 17.2727273,15.6347438 L17.2727273,18.3518931 Z M15.4778555,16.1915368 C15.4778555,15.939124 15.4079254,15.7312546 15.2680652,15.5679287 C15.1282051,15.4046028 14.9106449,15.3080921 14.6153846,15.2783964 L2.63403266,15.2783964 C2.32323231,15.2635486 2.0940171,15.3489235 1.94638696,15.5345211 C1.7987568,15.7201188 1.7171717,15.9613957 1.7016317,16.2583519 L1.7016317,17.5278396 C1.7171717,17.809948 1.77544677,18.0141054 1.87645688,18.1403118 C1.97746697,18.2665182 2.19891218,18.3444692 2.54079257,18.3741648 L14.6853147,18.3964365 C14.9805749,18.3964365 15.1864802,18.3221975 15.3030303,18.1737194 C15.4195804,18.0252413 15.4778555,17.809948 15.4778555,17.5278396 L15.4778555,16.1915368 Z" id="Shape"></path>
        </g>
    </g>
</svg>