<?xml version="1.0" encoding="UTF-8"?>
<svg width="31px" height="35px" viewBox="0 0 31 35" version="1.1" xmlns="http://www.w3.org/2000/svg" xmlns:xlink="http://www.w3.org/1999/xlink">
    <!-- Generator: Sketch 52.3 (67297) - http://www.bohemiancoding.com/sketch -->
    <title>Group 24 Copy</title>
    <desc>Created with Sketch.</desc>
    <g id="第二版" stroke="none" stroke-width="1" fill="none" fill-rule="evenodd">
        <g id="Group-24-Copy">
            <g id="jinggaolingdang" fill="#0A2A5E">
                <path d="M23.9948202,17.8104759 C23.7401633,17.7888249 23.4824829,17.7777778 23.2222222,17.7777778 C22.7898012,17.7777778 22.364503,17.8082741 21.948361,17.8672332 C21.6408249,9.15860898 16.9598323,8.34805188 16.7481342,8.31629717 C16.3284254,8.25385267 15.9783268,7.93651184 15.8882429,7.52192139 C15.6026362,6.21365823 14.848184,5.5513372 13.6453598,5.5513372 C13.1826564,5.55952663 11.8170672,5.72331546 11.4229503,7.52192139 C11.3302545,7.94493547 10.9814083,8.26385709 10.5517986,8.31834451 C10.3378494,8.35007861 5.05566011,9.26524859 5.35866943,19.6330807 C5.36665478,19.9143017 5.25855024,20.1864141 5.05975482,20.3854855 L3.01341829,22.4389878 C3.00011045,22.451272 1.98871452,23.4892836 2.06037212,24.8528255 C2.1136035,25.8693398 2.31526849,26.5930817 4.4281442,26.646313 C6.69354827,26.7087575 12.8264157,26.6555261 13.6463835,26.6483604 C13.7564855,26.6492901 13.9553631,26.6509952 14.2230679,26.6531225 C14.2225047,26.694607 14.2222222,26.7361594 14.2222222,26.7777778 C14.2222222,27.438168 14.2933492,28.0819456 14.4283604,28.7018678 C14.0541407,28.699024 13.7803472,28.6966874 13.6474072,28.6957206 C13.3577057,28.6977679 12.3555229,28.7059574 11.0923017,28.7131231 C11.6712111,29.4874212 12.581325,29.9434266 13.5481102,29.9435866 C13.9524339,29.9418758 14.3466766,29.8610233 14.7110234,29.7109697 C14.9358357,30.36343 15.2335594,30.9819386 15.5944588,31.5567599 C14.9620231,31.8344754 14.2683181,31.9870427 13.5491339,31.9899231 C11.4410208,31.9844163 9.55191259,30.6869497 8.7900451,28.7213126 C7.08766509,28.7243836 5.36481148,28.7192653 4.3769602,28.6936732 C1.5720767,28.6230393 0.146090326,27.4028126 0.0171066392,24.9613356 C-0.102663918,22.659079 1.50553752,21.0519013 1.57412407,20.9853621 L3.30414344,19.2492006 C3.15366248,9.43722689 7.79502806,7.02031815 9.59977607,6.4521757 C10.3337547,4.33008683 12.1364554,3.52956899 13.555276,3.50500068 L13.5573233,3.50500068 C15.5923994,3.50500068 17.0818539,4.59521999 17.7134645,6.45319937 C19.4273061,6.99338983 23.6935319,9.19890022 23.9948202,17.8104759 Z" id="Combined-Shape" fill-rule="nonzero"></path>
                <path d="M19.8826427,4.91153715 C19.9287083,4.92996338 24.4984162,6.71014308 24.3899061,11.9063433 C24.3841445,12.1778572 24.4865083,12.4405335 24.6744667,12.6365556 C24.8624252,12.8325776 25.1205725,12.9458787 25.392089,12.9515207 L25.4135862,12.9515207 C25.9694446,12.9515207 26.4249822,12.5062198 26.4372663,11.9493378 C26.5468001,6.6466749 22.6690999,3.77525222 20.6043372,2.99725536 C20.2586404,2.85129737 19.8607921,2.9061802 19.5675244,3.14028279 C19.2742566,3.37438538 19.1325794,3.75018178 19.1983063,4.11962726 C19.2640331,4.48907274 19.5266283,4.7929463 19.8826427,4.91153715 Z" id="Path"></path>
                <path d="M22.2565568,0.0797670598 C22.0003116,-0.0105303648 21.7186107,0.00528832517 21.4740856,0.123706111 C21.2295606,0.242123897 21.0424792,0.453325574 20.9544357,0.710354012 C20.864998,0.966632579 20.8812235,1.24796803 20.9995309,1.4922653 C21.1178384,1.73656256 21.3285012,1.92373657 21.5850227,2.01247512 C21.6566803,2.03704343 28.7661386,4.59010161 28.4692714,11.884846 C28.4461828,12.44961 28.8852002,12.9262051 29.4499569,12.9494733 L29.4929515,12.950497 C30.0415283,12.9498611 30.4920929,12.5169037 30.5145842,11.9687878 C30.8718485,3.17230466 22.3415223,0.10945379 22.2565568,0.0797670598 Z" id="Path"></path>
            </g>
            <g id="_chaoshi" transform="translate(17.000000, 21.000000)"></g>
            <path d="M17.0131827,28.0037665 C17.0131827,31.8645593 20.1429737,34.9943503 24.0037665,34.9943503 C27.8645593,34.9943503 30.9943503,31.8645593 30.9943503,28.0037665 C30.9943503,24.1429736 27.8645593,21.0131827 24.0037665,21.0131827 C20.1429737,21.0131827 17.0131827,24.1429736 17.0131827,28.0037665 Z" id="Path" fill="#27BB53"></path>
            <path d="M28.1016949,29.5899058 L24.7269303,27.6277213 L24.7269303,23.6213936 C24.7269303,23.2299891 24.4096343,22.912693 24.0182298,22.912693 C23.6268252,22.912693 23.3095292,23.2299891 23.3095292,23.6213936 L23.3095292,27.8784181 C23.2338193,28.1890246 23.3710451,28.5124854 23.6470056,28.6738983 L27.4026365,30.8433898 C27.7487766,31.043086 28.1912643,30.9243698 28.3909605,30.5782297 C28.5906566,30.2320897 28.4719404,29.789602 28.1258004,29.5899058 L28.1016949,29.5899058 Z" id="Path" fill="#FFFFFF"></path>
        </g>
    </g>
</svg>