<?xml version="1.0" encoding="UTF-8"?>
<svg width="34px" height="31px" viewBox="0 0 34 31" version="1.1" xmlns="http://www.w3.org/2000/svg" xmlns:xlink="http://www.w3.org/1999/xlink">
    <!-- Generator: Sketch 52.3 (67297) - http://www.bohemiancoding.com/sketch -->
    <title>Group 33 Copy 2</title>
    <desc>Created with Sketch.</desc>
    <g id="第二版" stroke="none" stroke-width="1" fill="none" fill-rule="evenodd">
        <g id="Group-33-Copy-2">
            <g id="jiejingzongshu-copy" fill="#0A2A5E" fill-rule="nonzero">
                <path d="M19.7792639,30.1386168 C19.3455588,30.2095403 18.9034967,30.2417269 18.4585021,30.2334066 C16.5790648,30.1771363 14.7459071,29.6556401 13.1340491,28.7187076 C12.177522,28.1861231 11.2816223,27.5575423 10.4611737,26.8433661 C6.72340761,23.638799 -1.71052604,15.2203702 0.73872237,5.65818908 C1.24162163,3.63291133 2.54541185,1.87929062 4.36999936,0.774057856 C5.37599857,0.220150602 6.57163802,0.0862303175 7.68180915,0.403111157 C8.96574987,0.715737406 10.0688665,1.50887166 10.7486941,2.60818308 C10.8125875,2.70091975 12.5377103,5.53454018 11.3769796,8.04873435 C10.6514428,9.44195697 9.32583526,10.4530121 7.75635149,10.8102263 C8.56566834,12.8916493 10.7167474,17.693348 14.5290558,20.8463948 C15.491331,19.7547974 16.7967467,18.9983588 18.245524,18.6928432 C18.2941963,18.6867614 18.3428895,18.6816546 18.3915751,18.6775148 C17.8596403,19.4951957 17.4569452,20.4046769 17.2124512,21.376997 C16.450357,21.8891098 15.802154,22.6161855 15.5407019,22.9690341 C15.3726766,23.1922579 15.1190816,23.3408775 14.8367969,23.3815585 C14.5545121,23.4222395 14.2671651,23.3515768 14.0392061,23.1854197 C7.94803181,18.7855799 5.45618778,10.7896182 5.34969871,10.4495837 C5.26725385,10.1710921 5.30977189,9.87188322 5.46683668,9.62525776 C5.62459653,9.37665701 5.88386812,9.20441385 6.18031337,9.15127031 C7.90543619,8.83184405 9.00227351,8.20329548 9.42822978,7.29653694 C10.1417065,5.78183798 8.90643335,3.72102311 8.90643335,3.72102311 C8.50323255,3.09794274 7.86555669,2.65087548 7.12806606,2.4742301 C6.89911397,2.4131211 6.66274041,2.3819321 6.42523822,2.38149343 C6.09301411,2.37634602 5.76553551,2.45823487 5.47748559,2.61848715 C4.13192295,3.43936352 3.17237015,4.7377568 2.80461014,6.23521728 L2.80461014,6.15278468 C0.57898877,14.8597275 9.18330493,22.9793382 11.8668293,25.2256264 C12.5774829,25.8404196 13.3518628,26.3825427 14.1776419,26.8433661 C15.7378723,27.7041641 17.0705337,28.0426521 18.1607903,28.1056062 C18.6006075,28.8599047 19.1469754,29.5444516 19.7792639,30.1386168 Z M19.9275206,16.8827179 C19.6919791,17.0943943 19.467667,17.3183193 19.2555868,17.5534901 L17.6491853,17.1163198 C18.1160799,15.9163212 18.0268526,14.5799591 17.4042604,13.4480694 C16.6965207,12.524344 15.6613099,11.8859051 14.497109,11.6551604 L14.848523,9.59434553 C16.6151786,9.92763011 18.1777607,10.9146702 19.2039256,12.3455334 C20.0226519,13.7271607 20.2735809,15.3453784 19.9275206,16.8827179 Z M23.0711957,15.0460752 C23.1262656,13.4824719 22.7055991,11.9230468 21.8398951,10.5701027 C20.6397563,8.69449566 18.6912378,7.38282245 16.4565078,6.94619839 L16.8931129,4.88538352 C16.9800429,4.88538352 25.2058452,6.66559587 25.2009409,14.6087952 C24.4621929,14.6689362 23.748681,14.8182931 23.0711957,15.0460752 Z M29.7477294,15.4210479 C29.0836599,15.1106496 28.3754379,14.87895 27.6350635,14.7379493 C27.923114,12.0057098 27.4093488,9.65531025 26.0937678,7.72930809 C23.4208924,3.80345571 18.2881196,2.86578495 18.2881196,2.86578495 L18.6608314,0.80497002 C18.9164051,0.856490456 24.70941,1.91781012 27.9040819,6.57525175 C29.5861912,9.03421238 30.2007404,12.0059525 29.7477294,15.4210479 Z" id="Combined-Shape"></path>
            </g>
            <g id="_chaoshi" transform="translate(20.000000, 17.000000)">
                <path d="M0.013182678,7.00376647 C0.013182678,10.8645593 3.14297366,13.9943503 7.00376648,13.9943503 C10.8645593,13.9943503 13.9943503,10.8645593 13.9943503,7.00376647 C13.9943503,3.14297365 10.8645593,0.0131826695 7.00376648,0.0131826695 C3.14297366,0.0131826695 0.013182678,3.14297365 0.013182678,7.00376647 Z" id="Path" fill="#27BB53"></path>
                <path d="M11.1016949,8.58990583 L7.72693032,6.62772129 L7.72693032,2.62139359 C7.72693032,2.22998908 7.40963427,1.91269303 7.01822975,1.91269303 C6.62682524,1.91269303 6.30952919,2.22998908 6.30952919,2.62139359 L6.30952919,6.87841808 C6.23381927,7.18902458 6.37104505,7.51248536 6.64700564,7.67389831 L10.4026365,9.84338983 C10.7487766,10.043086 11.1912643,9.92436979 11.3909605,9.57822975 C11.5906566,9.2320897 11.4719404,8.78960201 11.1258004,8.58990583 L11.1016949,8.58990583 Z" id="Path" fill="#FFFFFF"></path>
            </g>
        </g>
    </g>
</svg>