<?xml version="1.0" encoding="UTF-8"?>
<svg width="35px" height="29px" viewBox="0 0 35 29" version="1.1" xmlns="http://www.w3.org/2000/svg" xmlns:xlink="http://www.w3.org/1999/xlink">
    <!-- Generator: Sketch 52.3 (67297) - http://www.bohemiancoding.com/sketch -->
    <title>Group 38 Copy</title>
    <desc>Created with Sketch.</desc>
    <g id="第二版" stroke="none" stroke-width="1" fill="none" fill-rule="evenodd">
        <g id="Group-38-Copy">
            <path d="M33.0537605,15.340186 C32.510541,14.8461099 31.9066324,14.417589 31.2545352,14.067124 C31.4345642,13.928207 31.5969157,13.7670995 31.7375861,13.5877334 C31.9461799,13.3291063 32.0832666,13.0206338 32.1343273,12.6949862 C32.315879,11.1292864 31.8834908,9.57377778 30.9298915,8.36205021 L30.9948493,8.41280079 C25.503914,1.29845793 13.8082275,3.07982012 10.3859857,3.81151305 C9.46399997,3.9930113 8.56004529,4.26946659 7.6885111,4.63647823 C2.58779225,6.8135869 2.83097371,10.3684814 2.83097371,10.3684814 L2.82663963,10.6083411 C2.67006118,11.7292649 2.83443094,12.5063401 3.33785365,12.8996571 C4.57205127,13.8639179 7.69668888,12.9943067 8.5934239,12.5327385 L8.73705513,12.4827916 C9.16079829,12.4048383 9.53410433,12.1417369 9.75553098,11.7649827 C10.4008013,10.6880255 10.0835555,8.7509589 9.90234285,8.09586112 C9.82988683,7.82602513 9.86890161,7.53469013 10.0106364,7.28720099 C10.1523712,7.03971185 10.3849626,6.85678359 10.6562418,6.77944604 C17.8734642,4.68834703 25.7085004,7.64755273 26.0420125,7.77298433 C26.312225,7.87947346 26.5218281,8.09718949 26.6194728,8.37279603 C26.7182462,8.65016639 26.6943522,8.96051867 26.5537199,9.22683914 C25.7433396,10.7829129 25.5633621,12.0342057 26.0156528,12.9281201 C26.0359918,12.9684231 26.0575159,13.0078542 26.0801464,13.046431 C25.3677399,13.1187523 24.6798942,13.274161 24.0264521,13.5028143 C23.5850402,12.1935499 23.6694775,10.7379307 24.2761388,9.44741883 C22.1376899,8.80371724 17.0295632,7.54256975 12.197837,8.60550035 C12.4655917,10.0358381 12.2579793,11.5302298 11.6067725,12.859976 C11.0945728,13.7165614 10.2589809,14.3314255 9.29975796,14.5575756 C8.54882122,14.8492671 4.30827115,16.3605615 2.0266294,14.5779476 C0.870577169,13.555994 0.381387829,11.9608099 0.751338155,10.4193854 C0.766546371,8.79182012 1.34286457,7.20215666 2.38156202,5.92272481 C3.58300079,4.47635144 5.12255002,3.35286856 6.85322169,2.65954037 C7.86180096,2.23367851 8.90870027,1.91469282 9.97659742,1.70786129 C14.8030293,0.735389976 26.6292898,-0.727738129 32.6564834,7.08936247 C33.9428084,8.73253798 34.521987,10.8395754 34.269594,12.9578192 C34.1239314,13.8608978 33.6942115,14.694736 33.0537605,15.340186 Z M19,17.8727979 C18.3609308,19.1090371 18,20.5123686 18,22 C18,23.6056997 18.4204961,25.1131873 19.157377,26.4183515 L17.5,28 L12.375,23.1091703 C11.875,22.6200874 11.875,21.8558952 12.375,21.3668122 C12.875,20.8777293 13.65625,20.8777293 14.15625,21.3668122 L16,23.1365955 L16,15.3325 C16,14.585 16.6585366,14 17.5,14 C18.3414635,14 19,14.585 19,15.3325 L19,17.8727979 Z" id="Combined-Shape" fill="#0A2A5E" fill-rule="nonzero"></path>
            <g id="_chaoshi" transform="translate(20.000000, 15.000000)">
                <path d="M0.013182678,7.00376647 C0.013182678,10.8645593 3.14297366,13.9943503 7.00376648,13.9943503 C10.8645593,13.9943503 13.9943503,10.8645593 13.9943503,7.00376647 C13.9943503,3.14297365 10.8645593,0.0131826695 7.00376648,0.0131826695 C3.14297366,0.0131826695 0.013182678,3.14297365 0.013182678,7.00376647 Z" id="Path" fill="#27BB53"></path>
                <path d="M11.1016949,8.58990583 L7.72693032,6.62772129 L7.72693032,2.62139359 C7.72693032,2.22998908 7.40963427,1.91269303 7.01822975,1.91269303 C6.62682524,1.91269303 6.30952919,2.22998908 6.30952919,2.62139359 L6.30952919,6.87841808 C6.23381927,7.18902458 6.37104505,7.51248536 6.64700564,7.67389831 L10.4026365,9.84338983 C10.7487766,10.043086 11.1912643,9.92436979 11.3909605,9.57822975 C11.5906566,9.2320897 11.4719404,8.78960201 11.1258004,8.58990583 L11.1016949,8.58990583 Z" id="Path" fill="#FFFFFF"></path>
            </g>
        </g>
    </g>
</svg>