<?xml version="1.0" encoding="UTF-8"?>
<svg width="32px" height="32px" viewBox="0 0 32 32" version="1.1" xmlns="http://www.w3.org/2000/svg" xmlns:xlink="http://www.w3.org/1999/xlink">
    <!-- Generator: Sketch 52.3 (67297) - http://www.bohemiancoding.com/sketch -->
    <title>nv copy 2复制 copy copy</title>
    <desc>Created with Sketch.</desc>
    <g id="第二版" stroke="none" stroke-width="1" fill="none" fill-rule="evenodd">
        <g id="nv-copy-2复制-copy-copy" fill="#96A7C4" fill-rule="nonzero">
            <path d="M16,0.0190854871 C7.24612326,0.0190854871 0.0190854871,7.144334 0.0190854871,16 C0.0190854871,24.7538767 7.144334,31.9809145 16,31.9809145 C24.7538767,31.9809145 31.9809145,24.855666 31.9809145,16 C31.9809145,7.24612326 24.7538767,0.0190854871 16,0.0190854871 Z M26.1789264,26.5860835 C26.0771372,26.4842942 25.9753479,26.4842942 25.9753479,26.4842942 L21.394831,24.3467197 C20.7840954,24.0413519 20.2751491,23.6341948 19.6644135,23.2270378 C19.2572565,22.92167 19.1554672,22.4127237 19.0536779,22.0055666 C18.9518887,21.8019881 18.9518887,21.5984095 19.0536779,21.4966203 L19.0536779,21.0894632 C19.1554672,20.6823062 19.460835,20.5805169 19.7662028,20.5805169 C20.7840954,20.3769384 21.8019881,20.0715706 22.92167,19.867992 C23.1252485,19.867992 23.328827,19.7662028 23.5324056,19.7662028 C23.7359841,19.7662028 23.7359841,19.6644135 23.7359841,19.460835 C23.4306163,18.6465209 23.1252485,17.933996 22.92167,17.1196819 C22.7180915,16.3053678 22.6163022,15.4910537 22.5145129,14.6767396 L22.2091451,12.2337972 C22.1073559,11.4194831 22.0055666,10.5033797 21.7001988,9.68906561 C21.5984095,9.28190855 21.394831,8.87475149 21.1912525,8.46759443 C20.8858847,7.95864811 20.4787276,7.44970179 19.9697813,7.04254473 C19.1554672,6.33001988 18.2393638,5.92286282 17.2214712,5.71928429 C17.0178926,5.71928429 16.8143141,5.61749503 16.6107356,5.61749503 L15.1856859,5.61749503 C14.9821074,5.61749503 14.7785288,5.61749503 14.5749503,5.71928429 C13.5570577,5.92286282 12.539165,6.33001988 11.8266402,7.04254473 C11.3176938,7.44970179 10.9105368,7.95864811 10.605169,8.46759443 C10.4015905,8.87475149 10.1980119,9.28190855 10.0962227,9.68906561 C9.79085487,10.5033797 9.68906561,11.3176938 9.58727634,12.2337972 L9.28190855,14.6767396 C9.18011928,15.4910537 9.07833002,16.3053678 8.87475149,17.1196819 C8.67117296,17.933996 8.36580517,18.6465209 8.06043738,19.460835 C7.95864811,19.6644135 8.06043738,19.7662028 8.2640159,19.7662028 C8.46759443,19.7662028 8.67117296,19.867992 8.87475149,19.867992 C9.89264414,20.0715706 10.9105368,20.2751491 12.0302187,20.5805169 C12.3355865,20.6823062 12.7427435,20.7840954 12.7427435,21.0894632 L12.7427435,22.0055666 C12.6409543,22.5145129 12.539165,22.92167 12.132008,23.2270378 C11.6230616,23.6341948 11.012326,24.0413519 10.4015905,24.3467197 L5.82107356,26.4842942 C3.17455268,23.8377734 1.44413519,20.1733598 1.44413519,16 C1.44413519,7.85685885 8.06043738,1.34234592 16.1017893,1.34234592 C24.1431412,1.34234592 30.7594433,7.95864811 30.7594433,16 C30.6576541,20.1733598 28.9272366,23.9395626 26.1789264,26.5860835 Z" id="Shape"></path>
        </g>
    </g>
</svg>